<?xml version="1.0" standalone="no"?>
<!DOCTYPE svg PUBLIC "-//W3C//DTD SVG 20010904//EN"
 "http://www.w3.org/TR/2001/REC-SVG-20010904/DTD/svg10.dtd">
<svg version="1.0" xmlns="http://www.w3.org/2000/svg"
 width="300.000000pt" height="316.000000pt" viewBox="0 0 300.000000 316.000000"
 preserveAspectRatio="xMidYMid meet">
<metadata>
Created by potrace 1.10, written by Peter Selinger 2001-2011
</metadata>
<g transform="translate(0.000000,316.000000) scale(0.100000,-0.100000)"
fill="#000000" stroke="none">
<path d="M2018 3148 c9 -9 8 -16 -5 -30 -14 -15 -15 -23 -6 -37 10 -16 5 -26
-33 -67 -42 -47 -57 -73 -33 -58 8 4 8 1 1 -12 -21 -37 -41 -59 -48 -52 -4 5
3 16 14 27 25 21 29 36 7 27 -9 -3 -19 3 -25 14 -8 15 -6 21 10 30 11 6 20 18
20 27 0 13 3 13 15 3 9 -7 18 -11 20 -8 7 7 -5 38 -15 38 -10 0 -36 -25 -47
-44 -13 -22 -50 -29 -57 -11 -5 13 5 20 27 16 4 0 7 4 7 10 0 5 5 7 10 4 6 -3
10 -1 10 4 0 16 -22 13 -48 -5 -18 -12 -20 -19 -12 -35 8 -14 7 -19 -2 -19 -8
0 -7 -4 4 -10 9 -6 15 -18 14 -27 -2 -10 -1 -12 1 -5 5 15 29 16 38 2 7 -12
-25 -58 -74 -105 -17 -16 -31 -37 -31 -44 0 -9 14 -2 37 20 34 32 34 31 -11
-28 -48 -63 -60 -76 -50 -48 11 27 -11 16 -30 -16 -14 -24 -23 -29 -40 -24
-51 16 -61 12 -64 -27 -3 -33 -6 -36 -30 -35 -21 2 -30 -5 -44 -32 -9 -19 -21
-38 -27 -44 -6 -6 -6 -18 1 -33 9 -20 7 -30 -16 -64 -14 -22 -26 -48 -26 -59
0 -13 -8 -21 -22 -23 -13 -2 -24 -11 -26 -22 -4 -19 -3 -19 13 -2 10 9 24 15
31 12 14 -5 18 5 15 32 -2 8 9 30 22 50 25 39 42 96 24 85 -5 -3 -7 0 -5 8 3
8 10 13 16 12 6 -2 9 4 6 12 -4 8 1 26 10 40 13 20 20 23 35 15 16 -8 21 -5
31 20 6 16 9 33 6 39 -4 5 -2 12 4 16 6 3 13 -1 16 -9 3 -9 10 -16 16 -16 5 0
6 6 2 13 -5 9 -4 9 5 1 10 -9 5 -23 -25 -62 -31 -43 -40 -49 -56 -41 -12 6
-18 6 -18 -1 0 -5 7 -10 15 -10 8 0 15 -2 15 -4 0 -3 -25 -40 -55 -84 -59 -86
-68 -106 -33 -76 12 10 0 -12 -27 -51 -51 -74 -81 -110 -51 -62 10 16 14 32
10 35 -4 4 -9 2 -11 -5 -2 -6 -17 -31 -32 -55 -42 -64 -154 -246 -186 -300
-15 -27 -22 -48 -17 -48 6 0 13 8 16 18 4 9 16 28 27 42 l21 25 -14 -25 c-21
-36 -29 -60 -19 -60 4 0 18 20 31 45 24 48 43 52 34 7 -3 -15 -1 -38 4 -52 5
-13 6 -39 1 -58 -6 -27 -4 -35 12 -45 23 -14 24 -36 3 -51 -12 -9 -13 -17 -4
-40 12 -32 5 -65 -19 -82 -10 -8 -15 -26 -14 -50 2 -38 1 -39 -34 -41 -20 -1
-40 -6 -44 -10 -11 -11 31 -11 48 0 6 4 13 1 16 -5 7 -21 19 -1 28 48 5 27 15
51 22 56 7 4 12 28 11 60 0 32 5 58 13 66 17 18 16 27 -4 48 -18 17 -19 29
-24 165 -2 55 1 71 20 98 24 34 53 35 78 4 9 -11 10 -5 6 29 -3 24 -10 49 -16
56 -7 9 24 62 113 195 68 100 151 218 184 262 34 43 66 86 73 95 10 13 14 11
33 -13 12 -15 30 -27 41 -27 10 0 19 -7 19 -15 0 -9 7 -27 16 -40 9 -14 14
-33 11 -44 -2 -10 -1 -25 4 -34 6 -10 4 -17 -7 -21 -8 -3 -12 -11 -9 -17 4 -5
-1 -19 -10 -29 -9 -10 -18 -40 -20 -69 -2 -28 -8 -56 -14 -63 -49 -60 -60 -78
-56 -90 2 -7 -4 -24 -14 -37 -17 -23 -18 -27 -4 -48 14 -22 13 -25 -41 -77
-30 -30 -64 -57 -76 -61 -11 -3 -20 -11 -20 -17 0 -5 -14 -28 -31 -49 -31 -40
-34 -52 -45 -165 -5 -51 -1 -75 21 -140 18 -51 23 -80 16 -82 -6 -2 -11 -10
-11 -17 0 -8 -10 -17 -22 -21 -13 -3 -30 -12 -38 -19 -8 -7 -32 -18 -52 -24
-41 -13 -68 -54 -68 -102 0 -31 -28 -109 -39 -109 -4 0 -16 -7 -27 -16 -19
-15 -19 -15 2 -9 17 4 23 0 28 -17 9 -35 7 -45 -10 -62 -8 -9 -11 -16 -5 -16
16 0 33 39 28 61 -3 12 4 29 18 43 13 13 26 41 30 62 12 83 28 117 60 127 17
5 37 16 46 23 8 8 23 14 31 14 9 0 28 14 43 31 30 36 36 34 44 -18 l6 -38 148
0 147 0 0 -28 c0 -24 2 -26 19 -17 28 15 52 12 74 -7 19 -17 20 -17 8 4 -14
27 -44 37 -70 23 -20 -10 -20 -8 -14 37 3 27 11 51 17 55 7 5 7 8 -2 8 -10 0
-12 14 -8 56 4 44 1 59 -13 73 -9 9 -16 22 -14 28 2 6 -1 14 -6 18 -7 3 -8 0
-5 -9 3 -8 -3 -19 -15 -26 -18 -9 -21 -8 -21 7 0 13 -2 15 -9 5 -4 -7 -16 -13
-27 -12 -171 4 -212 4 -212 0 2 -32 -4 -80 -10 -80 -12 0 -52 135 -52 176 0
50 21 128 37 137 7 4 13 16 13 25 1 18 23 52 34 52 15 0 99 75 121 108 19 28
21 40 14 65 -7 24 -5 33 6 40 8 4 15 17 15 29 0 11 13 37 29 57 22 27 31 52
35 88 5 58 27 111 34 80 2 -10 -1 -30 -6 -46 -7 -20 -6 -34 4 -52 7 -13 14
-37 14 -54 0 -21 3 -26 9 -16 5 8 4 26 -2 45 -6 17 -10 53 -9 80 1 27 -3 54
-8 61 -7 9 -6 16 4 24 16 14 12 105 -7 129 -6 8 -5 17 3 27 10 12 10 18 0 30
-21 25 4 44 28 22 20 -18 42 -23 42 -9 0 5 9 19 19 31 13 15 19 37 19 67 0 48
23 94 47 94 9 0 24 5 34 12 16 10 24 6 55 -24 20 -19 36 -43 36 -54 0 -11 3
-15 10 -8 12 12 2 54 -14 54 -6 0 -22 13 -36 30 -24 29 -26 29 -64 16 -51 -18
-74 -49 -82 -113 -3 -29 -12 -58 -20 -64 -8 -6 -14 -18 -14 -26 0 -11 -7 -9
-30 7 -16 12 -30 18 -30 14 0 -5 -5 -3 -12 4 -9 9 -7 16 7 32 17 19 18 58 0
101 -4 11 3 27 19 44 14 15 26 32 26 36 0 5 6 9 14 9 10 0 12 -7 9 -22 -4 -17
-3 -20 6 -12 6 6 13 19 15 30 2 11 13 35 24 54 29 51 36 94 17 110 -12 10 -13
16 -4 26 9 11 6 14 -17 14 -22 0 -25 -3 -16 -12z m7 -48 c-3 -5 -1 -10 4 -10
6 0 11 5 11 11 0 5 5 7 10 4 8 -5 8 -11 1 -19 -6 -7 -8 -15 -5 -18 8 -8 -24
-68 -36 -68 -11 0 9 51 25 62 5 4 2 10 -8 14 -18 7 -24 34 -6 34 5 0 7 -4 4
-10z m-50 -120 c3 -5 1 -10 -4 -10 -6 0 -11 5 -11 10 0 6 2 10 4 10 3 0 8 -4
11 -10z m35 6 c0 -3 -4 -8 -10 -11 -5 -3 -10 -1 -10 4 0 6 5 11 10 11 6 0 10
-2 10 -4z m-130 -26 c0 -5 -7 -10 -15 -10 -8 0 -15 5 -15 10 0 6 7 10 15 10 8
0 15 -4 15 -10z m33 -102 c9 -31 2 -33 -11 -3 -6 14 -8 25 -3 25 5 0 11 -10
14 -22z m-13 -30 c0 -10 -7 -30 -16 -43 -9 -14 -13 -33 -9 -45 10 -32 -12 -24
-29 11 -15 30 -15 33 9 61 29 34 33 57 8 37 -16 -13 -17 -12 -4 4 16 21 41 6
41 -25z m5 -64 c-8 -16 -15 -23 -15 -16 0 17 20 55 26 49 2 -2 -2 -17 -11 -33z
m-66 -24 c5 -16 16 -30 24 -30 14 0 32 -28 23 -37 -6 -6 -47 16 -73 39 -18 17
-20 24 -10 39 16 26 23 24 36 -11z m71 -30 c0 -5 -5 -10 -11 -10 -5 0 -7 5 -4
10 3 6 8 10 11 10 2 0 4 -4 4 -10z m-190 -50 c-12 -16 -24 -30 -26 -30 -7 0 5
20 24 43 24 27 25 20 2 -13z m205 10 c3 -5 1 -10 -4 -10 -6 0 -11 5 -11 10 0
6 2 10 4 10 3 0 8 -4 11 -10z m-15 -37 c14 -28 20 -93 9 -93 -4 0 -9 21 -12
47 -3 26 -10 49 -16 51 -13 4 -15 22 -3 22 5 0 15 -12 22 -27z m-250 -57 c0
-2 -8 -10 -17 -17 -16 -13 -17 -12 -4 4 13 16 21 21 21 13z m280 -54 c0 -4 -9
-13 -20 -20 -23 -14 -26 -8 -7 13 13 16 27 19 27 7z m-40 -63 c-7 -11 -14 -19
-16 -16 -7 7 7 37 17 37 6 0 5 -9 -1 -21z m-20 -39 c0 -5 -4 -10 -10 -10 -5 0
-10 5 -10 10 0 6 5 10 10 10 6 0 10 -4 10 -10z m10 -30 c0 -5 -4 -10 -10 -10
-5 0 -10 5 -10 10 0 6 5 10 10 10 6 0 10 -4 10 -10z m-10 -30 c0 -5 -5 -10
-11 -10 -5 0 -7 5 -4 10 3 6 8 10 11 10 2 0 4 -4 4 -10z m0 -30 c0 -5 -4 -10
-10 -10 -5 0 -10 5 -10 10 0 6 5 10 10 10 6 0 10 -4 10 -10z m-48 -53 c-11
-12 -22 -33 -24 -46 -1 -14 -10 -26 -18 -29 -12 -4 -13 -2 -2 9 6 7 12 22 12
32 0 21 43 79 49 65 2 -5 -6 -19 -17 -31z m-492 -178 c-28 -46 -56 -88 -62
-94 -6 -5 0 8 13 30 65 110 93 154 96 151 2 -2 -19 -41 -47 -87z m454 75 c3
-9 6 -23 6 -31 0 -18 -49 -87 -57 -79 -3 2 4 14 15 26 24 26 38 73 23 78 -13
4 -15 22 -2 22 5 0 12 -7 15 -16z m-384 -49 c0 -26 -7 -30 -28 -17 -16 10 -5
42 14 42 8 0 14 -10 14 -25z m299 -94 c-13 -11 -26 -17 -29 -14 -3 2 6 13 19
24 13 11 26 17 29 15 3 -3 -6 -14 -19 -25z m-39 -21 c0 -5 -4 -10 -10 -10 -5
0 -10 5 -10 10 0 6 5 10 10 10 6 0 10 -4 10 -10z m-20 -29 c0 -5 -7 -14 -15
-21 -8 -7 -15 -19 -15 -26 0 -8 -7 -14 -16 -14 -14 0 -14 2 0 15 8 8 18 24 21
35 6 20 25 28 25 11z m-50 -75 c0 -3 -4 -8 -10 -11 -5 -3 -10 -1 -10 4 0 6 5
11 10 11 6 0 10 -2 10 -4z m-18 -96 c-8 -54 -6 -72 14 -132 13 -39 24 -72 24
-76 0 -15 -13 12 -34 70 -23 62 -26 123 -11 187 11 45 15 14 7 -49z m378 -241
l0 -89 -150 0 -150 0 0 35 c0 28 -5 38 -25 47 -14 6 -25 15 -25 20 0 5 5 6 10
3 17 -11 40 15 40 45 0 14 2 29 4 31 2 2 70 3 150 1 l146 -3 0 -90z m-350 -16
c-1 -19 -20 -33 -92 -68 -42 -20 -79 -41 -82 -46 -2 -5 -3 -4 -2 3 1 7 15 20
32 28 16 8 40 23 54 33 13 9 33 17 43 17 10 0 21 9 24 20 5 19 23 29 23 13z
m-180 -143 c0 -5 -4 -10 -10 -10 -5 0 -10 5 -10 10 0 6 5 10 10 10 6 0 10 -4
10 -10z m-26 -105 c-9 -20 -18 -34 -20 -32 -3 2 2 17 11 33 8 16 16 43 16 59
2 30 2 30 6 3 2 -15 -3 -43 -13 -63z"/>
<path d="M1696 1608 c-10 -40 -7 -44 34 -43 39 0 41 1 38 30 -3 26 -8 30 -34
33 -26 3 -33 -1 -38 -20z m59 2 c-3 -5 -15 -10 -26 -10 -10 0 -19 5 -19 10 0
6 12 10 26 10 14 0 23 -4 19 -10z"/>
<path d="M1800 1615 c0 -8 6 -15 13 -15 8 0 7 -4 -3 -10 -12 -8 -9 -10 13 -10
15 0 30 -1 34 -2 4 -2 8 8 8 21 0 13 -6 26 -14 29 -10 3 -12 0 -8 -11 3 -9 2
-19 -3 -22 -9 -6 -14 8 -11 28 0 4 -6 7 -14 7 -8 0 -15 -7 -15 -15z"/>
<path d="M1891 1602 c0 -15 3 -21 6 -13 5 11 7 11 14 0 6 -10 9 -8 9 7 0 12
-7 24 -15 28 -11 4 -15 -2 -14 -22z"/>
<path d="M1772 1544 c-6 -10 -12 -13 -12 -6 0 6 -5 12 -11 12 -6 0 -9 -7 -7
-16 4 -21 74 -29 81 -10 7 17 -10 43 -20 33 -4 -5 -1 -12 7 -17 9 -6 10 -10 3
-10 -7 0 -16 7 -21 16 -9 15 -10 15 -20 -2z"/>
<path d="M1840 1544 c0 -12 7 -24 15 -28 8 -3 15 -1 15 3 0 5 10 7 21 4 16 -4
20 -2 17 8 -3 8 -16 13 -29 13 -13 -1 -27 4 -31 10 -5 6 -8 2 -8 -10z"/>
<path d="M1696 1535 c-3 -9 0 -15 9 -15 8 0 15 7 15 15 0 8 -4 15 -9 15 -5 0
-11 -7 -15 -15z"/>
<path d="M1711 3094 c0 -16 3 -23 6 -16 2 6 10 9 16 5 23 -15 67 -11 67 6 1
14 2 14 11 -1 14 -25 29 -22 30 5 1 20 1 21 7 2 4 -12 18 -21 35 -23 22 -3 27
1 27 17 0 12 -5 21 -11 21 -5 0 -8 -4 -5 -9 3 -5 -1 -12 -10 -15 -12 -5 -15
-2 -10 9 3 9 2 14 -3 10 -5 -3 -11 0 -13 7 -3 8 -11 9 -24 3 -10 -4 -32 -8
-47 -7 -24 1 -26 -2 -16 -14 6 -8 7 -14 2 -14 -6 0 -15 10 -21 23 -6 12 -11
16 -11 8 -1 -11 -4 -11 -16 -1 -13 11 -15 8 -14 -16z"/>
<path d="M1920 3086 c0 -16 6 -22 23 -21 54 1 62 38 9 41 -27 1 -32 -2 -32
-20z"/>
<path d="M211 3078 c-14 -23 -14 -23 8 -4 22 20 25 26 13 26 -4 0 -13 -10 -21
-22z"/>
<path d="M2136 3085 c4 -8 9 -13 13 -11 4 3 13 1 21 -4 12 -7 10 -14 -10 -35
-21 -23 -22 -25 -5 -19 20 7 20 7 1 -14 -19 -22 -19 -22 2 -22 16 0 22 6 22
23 0 12 5 29 10 37 9 13 12 13 24 -2 7 -10 23 -18 36 -18 16 0 20 -4 16 -16
-4 -10 -1 -14 6 -12 7 3 19 -2 27 -9 7 -8 16 -12 19 -9 10 10 -20 35 -84 71
-34 19 -66 40 -69 45 -10 16 -35 12 -29 -5z"/>
<path d="M2102 3078 c-7 -7 -12 -19 -12 -28 0 -9 -3 -20 -7 -23 -3 -4 -8 -21
-10 -39 l-3 -31 18 21 c11 12 23 18 28 14 4 -4 2 1 -5 11 -12 15 -11 20 5 32
18 14 18 14 0 15 -15 0 -16 3 -6 15 16 19 8 29 -8 13z"/>
<path d="M219 3049 l-24 -20 28 17 c15 9 27 18 27 20 0 8 -8 4 -31 -17z"/>
<path d="M2187 2973 c-4 -6 5 -15 19 -22 18 -8 25 -8 22 0 -2 6 -7 10 -12 9
-5 -1 -12 4 -16 10 -5 7 -10 8 -13 3z"/>
<path d="M1788 2956 c-11 -8 -17 -24 -15 -45 2 -27 4 -29 14 -15 11 16 14 15
33 -7 17 -21 19 -21 14 -4 -4 11 -16 28 -28 37 -18 15 -19 19 -6 27 8 6 12 12
10 15 -3 2 -13 -1 -22 -8z"/>
<path d="M2134 2961 c-5 -5 -18 -11 -29 -14 -15 -4 -14 -5 7 -6 15 0 30 4 33
10 9 14 1 21 -11 10z"/>
<path d="M2260 2960 c0 -5 7 -7 15 -4 8 4 15 8 15 10 0 2 -7 4 -15 4 -8 0 -15
-4 -15 -10z"/>
<path d="M1693 2938 c1 -16 7 -28 14 -28 22 0 14 -18 -11 -24 -33 -8 -42 -40
-21 -72 9 -14 19 -23 23 -19 4 3 2 9 -4 13 -6 4 -14 17 -18 29 -5 16 -2 25 15
34 21 11 22 10 16 -20 -9 -45 0 -38 13 9 6 22 15 40 20 40 14 0 0 -62 -19 -84
-15 -18 -15 -18 7 -7 12 6 22 21 22 32 0 11 5 30 11 41 9 17 8 23 -5 30 -14 8
-15 13 -5 24 10 12 9 13 -5 8 -9 -3 -16 -1 -16 5 0 6 -5 11 -12 11 -9 0 -9 -3
0 -12 15 -15 16 -28 2 -28 -6 0 -15 10 -20 23 -8 21 -9 20 -7 -5z"/>
<path d="M2286 2939 c-21 -16 -35 -20 -69 -15 -41 5 -41 5 -9 -6 17 -6 32 -15
32 -19 0 -5 8 -9 18 -9 19 0 42 -18 42 -33 0 -4 -9 -5 -20 -2 -14 4 -20 2 -20
-9 0 -15 -34 -40 -55 -41 -5 0 -12 -11 -15 -24 -3 -13 -14 -28 -25 -32 -18 -7
-18 -8 -2 -8 15 -1 17 -6 12 -30 -8 -38 3 -79 24 -86 9 -2 25 -20 35 -39 18
-33 18 -34 -9 -76 l-27 -43 25 -61 c35 -85 37 -92 27 -102 -14 -14 -22 -101
-11 -121 5 -10 12 -25 15 -33 3 -8 11 -23 18 -32 10 -14 9 -21 -6 -37 -19 -20
-18 -21 23 -66 22 -24 41 -51 41 -58 0 -14 -50 -88 -77 -115 -7 -7 -13 -17
-13 -22 0 -5 -22 -31 -50 -59 -27 -28 -50 -55 -50 -61 0 -5 -10 -10 -22 -10
-21 -1 -21 -2 -5 -11 20 -11 37 -4 37 16 0 7 15 26 33 42 37 33 114 131 139
177 25 45 22 61 -17 104 -33 37 -34 41 -22 72 9 26 9 34 0 37 -7 3 -13 16 -13
30 0 14 -8 32 -17 39 -16 12 -16 15 -3 23 11 8 12 13 4 21 -13 13 -7 50 8 50
15 0 2 59 -27 123 l-24 54 25 36 c33 49 30 69 -12 114 -23 24 -36 47 -36 63 1
46 8 74 20 78 7 2 12 9 12 16 0 19 51 60 76 61 21 1 21 -1 8 -27 -8 -15 -10
-29 -5 -33 12 -7 17 1 26 43 4 20 3 32 -4 32 -6 0 -11 8 -11 17 0 13 3 14 12
5 15 -15 32 -16 23 -2 -3 6 -1 10 5 10 6 0 8 5 5 10 -10 16 12 12 29 -5 8 -8
19 -15 25 -15 6 0 11 -7 11 -15 0 -18 -14 -19 -41 -5 -10 6 -19 7 -19 3 0 -9
48 -33 66 -33 7 0 14 -6 17 -12 3 -10 7 -10 20 0 13 11 17 10 25 -3 5 -10 17
-15 28 -13 16 4 14 7 -11 18 -16 7 -39 13 -50 14 -14 1 -21 9 -23 29 -3 21
-13 32 -39 45 -33 16 -36 16 -48 -1 -10 -14 -17 -15 -45 -5 l-33 11 28 23 c16
13 27 26 24 29 -3 3 -18 -4 -33 -16z"/>
<path d="M1628 2882 c-14 -15 -38 -35 -52 -45 -25 -17 -40 -77 -16 -62 6 3 10
14 10 23 0 21 37 55 45 42 9 -15 -6 -60 -21 -60 -8 0 -14 -4 -14 -10 0 -5 -9
-10 -19 -10 -15 0 -19 -5 -16 -21 6 -29 10 -32 38 -25 23 5 34 36 13 36 -6 1
-2 8 9 18 11 9 20 23 20 30 0 6 5 11 10 10 6 -2 9 -7 7 -11 -1 -5 2 -6 7 -3
13 9 1 46 -15 46 -12 0 -12 4 -2 19 7 11 16 17 20 15 4 -3 8 4 8 15 0 25 1 25
-32 -7z m-40 -144 c-2 -6 -10 -14 -16 -16 -7 -2 -10 2 -6 12 7 18 28 22 22 4z"/>
<path d="M2005 2880 c3 -5 11 -10 16 -10 6 0 7 5 4 10 -3 6 -11 10 -16 10 -6
0 -7 -4 -4 -10z"/>
<path d="M2236 2868 c3 -5 10 -6 15 -3 13 9 11 12 -6 12 -8 0 -12 -4 -9 -9z"/>
<path d="M1770 2861 c0 -6 4 -13 10 -16 6 -3 7 1 4 9 -7 18 -14 21 -14 7z"/>
<path d="M2140 2855 c7 -8 17 -15 22 -15 6 0 5 7 -2 15 -7 8 -17 15 -22 15 -6
0 -5 -7 2 -15z"/>
<path d="M2150 2815 c-7 -8 -21 -15 -31 -15 -12 0 -19 -7 -19 -21 0 -19 2 -19
35 7 19 14 35 30 35 35 0 13 -6 11 -20 -6z"/>
<path d="M2345 2820 c-3 -5 -1 -10 4 -10 6 0 11 5 11 10 0 6 -2 10 -4 10 -3 0
-8 -4 -11 -10z"/>
<path d="M2361 2798 c-14 -23 -14 -23 8 -4 22 20 25 26 13 26 -4 0 -13 -10
-21 -22z"/>
<path d="M1489 2784 c-7 -9 -12 -30 -11 -47 2 -17 0 -28 -4 -24 -4 3 -15 2
-25 -3 -12 -7 -19 -6 -22 3 -2 6 -2 1 0 -12 2 -13 -2 -28 -9 -33 -8 -6 -4 -7
12 -2 45 12 84 64 59 80 -6 3 -4 16 6 30 18 27 14 32 -6 8z m-29 -94 c0 -5 -4
-10 -10 -10 -5 0 -10 5 -10 10 0 6 5 10 10 10 6 0 10 -4 10 -10z"/>
<path d="M2170 2792 c0 -7 -5 -12 -11 -12 -6 0 -22 -9 -36 -20 -31 -24 -43
-25 -43 -3 0 14 -2 15 -12 4 -10 -11 -10 -14 0 -18 17 -6 15 -23 -3 -23 -20 0
-19 -14 2 -31 15 -12 16 -12 11 3 -8 21 2 31 18 17 10 -8 11 -5 7 11 -5 18 -2
21 13 18 20 -4 72 47 60 59 -3 4 -6 1 -6 -5z"/>
<path d="M2265 2790 c3 -5 8 -10 11 -10 2 0 4 5 4 10 0 6 -5 10 -11 10 -5 0
-7 -4 -4 -10z"/>
<path d="M2550 2793 c19 -8 87 -58 125 -94 43 -41 87 -75 108 -82 9 -3 17 -13
17 -21 0 -7 9 -16 20 -19 11 -3 21 -14 21 -26 2 -33 4 -39 12 -47 15 -15 6
-42 -27 -86 -41 -53 -52 -59 -126 -68 l-55 -7 48 -2 c59 -1 112 24 151 74 26
34 28 41 21 92 -5 43 -14 63 -42 94 -19 21 -40 39 -45 39 -11 0 -52 31 -104
80 -40 36 -110 80 -126 79 -8 0 -8 -3 2 -6z"/>
<path d="M1512 2770 c-7 -11 -8 -20 -3 -20 5 0 7 -10 4 -22 -3 -13 -3 -20 0
-17 6 5 19 79 14 79 -1 0 -8 -9 -15 -20z"/>
<path d="M2430 2775 c-8 -9 -8 -15 -2 -15 12 0 26 19 19 26 -2 2 -10 -2 -17
-11z"/>
<path d="M1742 2772 c-12 -2 -20 -7 -17 -12 3 -5 12 -7 20 -3 9 3 15 -1 15 -8
0 -10 3 -10 12 -1 16 16 0 29 -30 24z"/>
<path d="M2493 2756 c-12 -14 -7 -26 10 -26 6 0 7 3 4 7 -4 3 -2 12 4 20 15
17 -2 16 -18 -1z"/>
<path d="M2550 2758 c0 -6 -10 -22 -22 -35 -12 -13 -16 -23 -10 -23 7 0 12 5
12 10 0 6 5 10 10 10 6 0 10 -9 10 -20 0 -11 5 -20 10 -20 14 0 13 37 -1 42
-9 3 -9 10 0 26 8 14 8 22 1 22 -5 0 -10 -5 -10 -12z"/>
<path d="M667 2753 c-4 -3 -7 -11 -7 -18 0 -16 71 -19 81 -3 6 8 9 9 9 2 0
-12 49 -12 69 0 7 5 9 1 5 -8 -3 -9 -2 -16 4 -16 8 0 22 22 22 34 0 8 -121 3
-126 -5 -3 -5 -11 -9 -17 -9 -8 0 -8 3 1 9 11 7 11 9 -2 14 -9 4 -16 1 -16 -6
0 -9 -2 -9 -8 1 -5 7 -11 9 -15 5z"/>
<path d="M930 2749 c0 -5 5 -7 10 -4 6 3 10 8 10 11 0 2 -4 4 -10 4 -5 0 -10
-5 -10 -11z"/>
<path d="M856 2735 c-4 -10 1 -15 14 -15 11 0 20 6 20 13 0 8 4 7 10 -3 8 -13
10 -12 10 3 0 22 -45 24 -54 2z"/>
<path d="M939 2734 c-23 -12 -21 -13 24 -12 30 0 47 5 47 13 0 16 -40 16 -71
-1z"/>
<path d="M1445 2740 c-3 -5 -1 -10 4 -10 6 0 11 5 11 10 0 6 -2 10 -4 10 -3 0
-8 -4 -11 -10z"/>
<path d="M1625 2739 c-4 -6 -5 -12 -2 -15 2 -3 7 2 10 11 7 17 1 20 -8 4z"/>
<path d="M1686 2733 c-6 -14 -5 -15 5 -6 7 7 10 15 7 18 -3 3 -9 -2 -12 -12z"/>
<path d="M2976 2706 c21 -15 30 -14 19 3 -3 6 -14 11 -23 11 -13 0 -13 -2 4
-14z"/>
<path d="M2299 2702 c7 -5 10 -15 7 -21 -10 -16 3 -14 20 4 9 8 11 15 6 15 -6
0 -19 3 -29 6 -14 4 -15 4 -4 -4z"/>
<path d="M1520 2691 c0 -6 7 -8 17 -4 10 4 14 2 10 -4 -7 -12 21 -22 41 -16
18 7 15 19 -5 20 -10 1 -28 4 -40 8 -14 5 -23 3 -23 -4z"/>
<path d="M2015 2690 c-3 -5 -3 -14 0 -20 3 -5 -1 -10 -9 -10 -9 0 -16 -5 -16
-11 0 -5 13 -3 29 7 17 10 27 23 24 31 -6 15 -19 17 -28 3z"/>
<path d="M2236 2691 c-4 -5 3 -7 14 -4 23 6 26 13 6 13 -8 0 -17 -4 -20 -9z"/>
<path d="M2969 2676 c14 -14 26 -24 29 -22 7 8 -8 25 -31 37 -21 11 -21 10 2
-15z"/>
<path d="M1473 2657 c-34 -13 -58 -31 -33 -25 11 2 14 -4 12 -22 -2 -19 0 -22
8 -10 8 12 10 11 10 -8 0 -12 -8 -26 -17 -29 -15 -6 -15 -7 3 -14 34 -14 50
-10 28 6 -10 8 -14 15 -7 15 7 0 10 7 7 15 -4 8 -1 15 5 15 6 0 11 4 11 10 0
5 -7 7 -16 3 -12 -4 -15 -2 -12 8 3 8 11 14 19 14 8 0 17 5 21 10 4 6 8 -3 8
-19 0 -19 4 -26 9 -20 12 12 2 64 -13 63 -6 0 -25 -6 -43 -12z"/>
<path d="M1780 2661 c0 -5 5 -13 10 -16 6 -3 10 -2 10 4 0 5 -4 13 -10 16 -5
3 -10 2 -10 -4z"/>
<path d="M2588 2661 c11 -7 11 -11 -2 -24 -9 -8 -16 -21 -16 -27 0 -6 -5 -8
-12 -4 -7 4 -8 3 -4 -4 11 -18 30 -4 47 33 16 34 16 35 -5 35 -15 0 -17 -3 -8
-9z"/>
<path d="M2255 2650 c-8 -13 5 -13 25 0 13 8 13 10 -2 10 -9 0 -20 -4 -23 -10z"/>
<path d="M1356 2635 c-11 -8 -17 -17 -14 -20 2 -3 13 4 23 15 21 23 18 25 -9
5z"/>
<path d="M1406 2633 c-6 -14 -5 -15 5 -6 7 7 10 15 7 18 -3 3 -9 -2 -12 -12z"/>
<path d="M1960 2639 c0 -5 5 -7 10 -4 6 3 10 8 10 11 0 2 -4 4 -10 4 -5 0 -10
-5 -10 -11z"/>
<path d="M2115 2640 c-19 -8 -19 -9 3 -9 12 -1 22 4 22 9 0 6 -1 10 -2 9 -2 0
-12 -4 -23 -9z"/>
<path d="M2284 2634 c-18 -15 -18 -15 2 -5 19 9 23 7 28 -14 4 -15 16 -27 31
-31 14 -3 22 -10 19 -15 -3 -5 3 -6 12 -2 13 5 9 10 -20 25 -23 12 -36 26 -36
38 0 24 -10 25 -36 4z"/>
<path d="M2060 2636 c0 -2 7 -9 15 -16 9 -7 15 -8 15 -2 0 5 -7 12 -15 16 -8
3 -15 4 -15 2z"/>
<path d="M2354 2625 c8 -8 18 -15 22 -15 3 0 1 7 -6 15 -7 8 -17 15 -22 15 -5
0 -3 -7 6 -15z"/>
<path d="M2387 2619 c4 -13 8 -18 11 -10 2 7 -1 18 -6 23 -8 8 -9 4 -5 -13z"/>
<path d="M2664 2631 c8 -12 -20 -22 -41 -14 -10 3 -7 -3 7 -13 14 -10 30 -25
37 -34 9 -12 14 -13 24 -2 11 10 10 12 -4 12 -19 0 -24 36 -5 42 7 3 5 7 -6
11 -9 4 -15 3 -12 -2z"/>
<path d="M1746 2600 c2 -16 -1 -32 -6 -35 -13 -8 -13 -25 0 -25 5 0 12 10 15
23 6 21 59 52 74 43 3 -2 12 3 19 11 12 12 10 14 -15 11 -15 -2 -34 -10 -41
-18 -11 -13 -13 -13 -23 3 -16 26 -27 20 -23 -13z"/>
<path d="M2722 2610 c0 -14 4 -36 8 -50 6 -20 8 -21 8 -5 0 11 -4 34 -8 50 -7
27 -8 27 -8 5z"/>
<path d="M1369 2603 c-13 -16 -12 -17 4 -4 9 7 17 15 17 17 0 8 -8 3 -21 -13z"/>
<path d="M2455 2610 c-3 -5 -1 -10 4 -10 6 0 11 5 11 10 0 6 -2 10 -4 10 -3 0
-8 -4 -11 -10z"/>
<path d="M2492 2608 c-15 -15 -16 -55 -1 -64 9 -5 10 1 5 21 -5 20 -2 31 11
41 10 7 13 14 8 14 -6 0 -16 -5 -23 -12z"/>
<path d="M2528 2605 c-3 -11 -9 -29 -13 -40 -3 -11 1 -7 10 8 9 16 15 33 12
40 -2 6 -6 3 -9 -8z"/>
<path d="M2120 2600 c0 -5 4 -10 9 -10 6 0 13 5 16 10 3 6 -1 10 -9 10 -9 0
-16 -4 -16 -10z"/>
<path d="M2411 2580 c-9 -27 -20 -35 -43 -31 -5 0 -8 -3 -8 -9 0 -5 9 -10 21
-10 13 0 18 -4 13 -12 -4 -7 -3 -8 5 -4 6 4 8 12 5 18 -5 7 0 9 14 5 47 -15
67 -17 39 -5 -25 11 -28 17 -25 45 5 41 -7 43 -21 3z"/>
<path d="M2590 2581 c0 -6 4 -13 10 -16 6 -3 7 1 4 9 -7 18 -14 21 -14 7z"/>
<path d="M2630 2563 c0 -5 5 -15 10 -23 8 -12 10 -11 10 8 0 12 -4 22 -10 22
-5 0 -10 -3 -10 -7z"/>
<path d="M2976 2536 c-7 -28 1 -56 17 -56 8 0 8 3 0 11 -7 7 -9 25 -6 40 7 35
-2 39 -11 5z"/>
<path d="M1680 2533 c8 -3 18 -11 22 -17 5 -7 8 -4 8 7 0 11 -7 17 -22 16 -16
0 -18 -2 -8 -6z"/>
<path d="M2667 2534 c-7 -7 30 -44 45 -44 4 0 8 5 8 10 0 6 -7 10 -15 10 -8 0
-15 7 -15 15 0 16 -12 20 -23 9z"/>
<path d="M1402 2495 c-12 -14 -17 -25 -12 -25 6 0 13 7 16 15 4 8 10 12 15 9
5 -3 9 2 9 10 0 21 -3 20 -28 -9z"/>
<path d="M1450 2510 c-12 -8 -9 -10 13 -10 16 0 26 4 22 10 -8 12 -16 12 -35
0z"/>
<path d="M1738 2513 c6 -2 18 -2 25 0 6 3 1 5 -13 5 -14 0 -19 -2 -12 -5z"/>
<path d="M1690 2490 c14 -10 27 -16 30 -13 6 6 -30 33 -44 33 -6 0 0 -9 14
-20z"/>
<path d="M2336 2495 c4 -8 11 -15 16 -15 6 0 5 6 -2 15 -7 8 -14 15 -16 15 -2
0 -1 -7 2 -15z"/>
<path d="M2730 2489 c-9 -17 -7 -26 14 -53 14 -19 22 -36 19 -40 -4 -3 -2 -6
4 -6 19 0 22 12 7 28 -10 9 -13 25 -10 41 3 14 3 20 0 14 -6 -15 -34 -18 -34
-4 0 5 7 11 15 15 8 3 15 10 15 16 0 17 -19 11 -30 -11z"/>
<path d="M2776 2501 c-3 -5 0 -11 8 -14 15 -6 26 1 26 15 0 11 -27 10 -34 -1z"/>
<path d="M2430 2491 c0 -5 5 -13 10 -16 6 -3 10 -2 10 4 0 5 -4 13 -10 16 -5
3 -10 2 -10 -4z"/>
<path d="M1640 2480 c0 -5 5 -10 11 -10 5 0 7 5 4 10 -3 6 -8 10 -11 10 -2 0
-4 -4 -4 -10z"/>
<path d="M2313 2483 c4 -3 2 -12 -4 -19 -8 -9 -5 -11 11 -7 16 4 18 8 9 19 -6
8 -14 14 -17 14 -3 0 -2 -3 1 -7z"/>
<path d="M2387 2473 c4 -10 18 -28 32 -40 14 -13 22 -23 17 -23 -5 0 6 -13 24
-30 18 -16 38 -30 44 -30 6 0 -1 8 -14 17 -42 29 -55 59 -20 48 11 -3 20 -2
20 3 0 5 -15 13 -32 18 -19 5 -37 19 -43 32 -12 26 -38 31 -28 5z"/>
<path d="M1670 2470 c0 -5 5 -10 11 -10 5 0 7 5 4 10 -3 6 -8 10 -11 10 -2 0
-4 -4 -4 -10z"/>
<path d="M1620 2455 c0 -20 17 -28 23 -11 3 8 -1 17 -9 20 -8 3 -14 -1 -14 -9z"/>
<path d="M2353 2459 c-9 -9 -8 -15 2 -25 18 -18 25 -18 25 1 0 8 -5 15 -11 15
-5 0 -7 5 -4 10 8 13 2 13 -12 -1z"/>
<path d="M1372 2448 c-7 -7 -12 -18 -12 -25 0 -7 -5 -13 -12 -13 -6 0 -9 -3
-6 -6 4 -3 16 0 28 6 18 10 20 14 9 21 -10 6 -8 10 11 18 14 5 18 10 10 10 -9
1 -21 -4 -28 -11z"/>
<path d="M1970 2449 c0 -5 5 -7 10 -4 6 3 10 8 10 11 0 2 -4 4 -10 4 -5 0 -10
-5 -10 -11z"/>
<path d="M2797 2445 c-13 -9 -15 -15 -7 -20 14 -8 34 9 29 23 -3 7 -11 6 -22
-3z"/>
<path d="M1658 2415 c2 -14 6 -25 8 -25 2 0 4 11 4 25 0 14 -4 25 -9 25 -4 0
-6 -11 -3 -25z"/>
<path d="M1420 2419 c0 -5 5 -7 10 -4 6 3 10 8 10 11 0 2 -4 4 -10 4 -5 0 -10
-5 -10 -11z"/>
<path d="M2300 2414 c0 -8 5 -12 10 -9 6 3 10 10 10 16 0 5 -4 9 -10 9 -5 0
-10 -7 -10 -16z"/>
<path d="M2390 2420 c0 -5 5 -10 11 -10 5 0 7 5 4 10 -3 6 -8 10 -11 10 -2 0
-4 -4 -4 -10z"/>
<path d="M2897 2419 c-9 -6 -24 -24 -33 -42 l-15 -32 29 35 c24 28 33 32 44
22 8 -6 18 -9 21 -5 9 8 38 -17 31 -28 -3 -5 2 -9 10 -9 9 0 16 4 16 8 0 14
-35 42 -51 42 -8 0 -19 4 -24 9 -6 6 -17 6 -28 0z"/>
<path d="M1601 2415 c0 -5 6 -19 14 -29 12 -16 18 -17 27 -8 9 9 8 12 -5 12
-9 0 -21 8 -26 18 -6 9 -10 13 -10 7z"/>
<path d="M2510 2413 c0 -15 51 -43 77 -43 10 1 0 7 -21 15 -21 7 -43 20 -47
27 -6 9 -9 10 -9 1z"/>
<path d="M1400 2385 c-7 -9 -10 -18 -7 -21 3 -3 10 4 17 15 13 25 8 27 -10 6z"/>
<path d="M1575 2375 c0 -13 4 -27 9 -32 5 -5 7 -1 3 10 -9 25 12 21 23 -5 5
-13 9 -16 9 -8 1 17 -7 30 -29 47 -13 10 -16 8 -15 -12z"/>
<path d="M1327 2379 c-9 -6 -17 -15 -17 -21 0 -6 8 -4 18 5 16 14 17 14 17 -8
0 -16 -7 -26 -20 -29 -15 -4 -20 -14 -22 -43 -2 -37 -1 -37 10 -12 17 36 38
60 48 53 5 -3 9 -1 9 5 0 5 -6 11 -12 14 -10 3 -8 9 4 23 16 19 16 20 0 21
-10 1 -25 -3 -35 -8z"/>
<path d="M2340 2380 c0 -5 7 -10 16 -10 8 0 12 5 9 10 -3 6 -10 10 -16 10 -5
0 -9 -4 -9 -10z"/>
<path d="M2190 2370 c-9 -6 -10 -10 -3 -10 6 0 15 5 18 10 8 12 4 12 -15 0z"/>
<path d="M2627 2369 c7 -7 15 -10 18 -7 3 3 -2 9 -12 12 -14 6 -15 5 -6 -5z"/>
<path d="M2897 2373 c-3 -5 10 -8 29 -9 19 0 34 3 34 8 0 10 -57 11 -63 1z"/>
<path d="M2295 2360 c-3 -6 0 -17 9 -25 20 -20 25 -19 19 5 -7 25 -19 34 -28
20z"/>
<path d="M1467 2343 c-4 -3 -7 -11 -7 -17 0 -6 5 -5 12 2 6 6 9 14 7 17 -3 3
-9 2 -12 -2z"/>
<path d="M2000 2335 c-7 -9 -11 -17 -9 -20 3 -2 10 5 17 15 14 24 10 26 -8 5z"/>
<path d="M2802 2325 c-12 -14 -19 -25 -16 -25 4 0 17 11 30 25 13 14 20 25 15
25 -4 0 -17 -11 -29 -25z"/>
<path d="M2510 2330 c0 -5 5 -10 11 -10 5 0 7 5 4 10 -3 6 -8 10 -11 10 -2 0
-4 -4 -4 -10z"/>
<path d="M1561 2321 c-8 -6 -9 -11 -3 -15 6 -3 14 -1 17 5 9 14 2 20 -14 10z"/>
<path d="M2345 2321 c-6 -10 24 -51 37 -51 10 0 -2 31 -18 48 -8 7 -15 8 -19
3z"/>
<path d="M1360 2300 c0 -5 5 -10 11 -10 5 0 7 5 4 10 -3 6 -8 10 -11 10 -2 0
-4 -4 -4 -10z"/>
<path d="M1895 2300 c-3 -6 1 -7 9 -4 18 7 21 14 7 14 -6 0 -13 -4 -16 -10z"/>
<path d="M2507 2289 c4 -13 8 -18 11 -10 2 7 -1 18 -6 23 -8 8 -9 4 -5 -13z"/>
<path d="M1978 2288 c17 -17 15 -45 -3 -52 -8 -3 -15 -14 -15 -24 0 -26 -60
-114 -81 -119 -17 -5 -33 -42 -23 -52 3 -3 7 5 11 17 3 12 11 22 18 22 7 0 16
7 19 16 3 9 13 14 21 11 9 -4 12 -1 9 7 -8 22 38 86 59 82 15 -4 17 2 16 37
-2 43 -14 67 -32 67 -7 0 -7 -4 1 -12z m12 -68 c0 -5 -4 -10 -10 -10 -5 0 -10
5 -10 10 0 6 5 10 10 10 6 0 10 -4 10 -10z"/>
<path d="M2762 2270 c0 -14 2 -19 5 -12 2 6 2 18 0 25 -3 6 -5 1 -5 -13z"/>
<path d="M2960 2275 c0 -8 5 -15 10 -15 6 0 10 7 10 15 0 8 -4 15 -10 15 -5 0
-10 -7 -10 -15z"/>
<path d="M1511 2264 c6 -7 17 -10 25 -7 20 7 18 10 -11 15 -20 4 -23 2 -14 -8z"/>
<path d="M1695 2270 c3 -5 8 -10 11 -10 2 0 4 5 4 10 0 6 -5 10 -11 10 -5 0
-7 -4 -4 -10z"/>
<path d="M1326 2245 c-3 -8 -1 -15 4 -15 13 0 22 18 11 24 -5 3 -11 -1 -15 -9z"/>
<path d="M2495 2250 c3 -5 8 -10 11 -10 2 0 4 5 4 10 0 6 -5 10 -11 10 -5 0
-7 -4 -4 -10z"/>
<path d="M2291 2231 c-7 -5 -9 -11 -5 -14 5 -3 15 1 22 9 14 16 5 18 -17 5z"/>
<path d="M2541 2224 c0 -11 3 -14 6 -6 3 7 2 16 -1 19 -3 4 -6 -2 -5 -13z"/>
<path d="M2781 2223 c18 -31 -3 -58 -35 -42 -20 11 -20 10 -4 -6 14 -15 20
-16 32 -5 15 11 20 7 17 -12 0 -5 4 -8 9 -8 15 0 2 62 -17 80 -14 14 -14 13
-2 -7z"/>
<path d="M2330 2226 c0 -2 8 -10 18 -17 15 -13 16 -12 3 4 -13 16 -21 21 -21
13z"/>
<path d="M2513 2194 c2 -47 22 -73 40 -55 9 10 9 12 -2 9 -10 -2 -17 9 -21 35
-9 51 -20 59 -17 11z"/>
<path d="M1253 2213 c9 -2 23 -2 30 0 6 3 -1 5 -18 5 -16 0 -22 -2 -12 -5z"/>
<path d="M1304 2205 c-9 -21 -2 -26 13 -10 8 9 9 16 3 20 -6 3 -13 -1 -16 -10z"/>
<path d="M1453 2188 c5 -32 27 -35 25 -4 -1 14 -8 26 -15 26 -8 0 -11 -9 -10
-22z"/>
<path d="M1490 2191 c0 -3 5 -13 10 -21 8 -12 10 -12 10 5 1 18 1 19 11 3 5
-10 15 -18 20 -18 6 0 7 5 4 10 -3 6 -1 10 4 10 6 0 11 -6 12 -12 0 -7 4 -4 9
7 8 18 9 18 9 2 1 -10 5 -16 10 -13 5 4 11 0 14 -6 3 -10 7 -10 17 -1 7 6 18
9 24 7 6 -2 12 4 13 14 1 17 -6 19 -83 19 -46 0 -84 -3 -84 -6z"/>
<path d="M2058 2193 c12 -2 22 -9 22 -14 0 -5 5 -9 11 -9 8 0 8 5 -1 15 -7 8
-22 14 -34 14 -20 -2 -20 -2 2 -6z"/>
<path d="M1245 2181 c3 -6 -3 -14 -12 -20 -16 -9 -15 -10 7 -11 24 -1 24 -1 6
-15 -11 -8 -17 -17 -14 -20 9 -9 39 25 32 36 -3 6 0 16 6 24 10 12 9 15 -9 15
-12 0 -20 -4 -16 -9z"/>
<path d="M2833 2161 c0 -11 5 -18 9 -15 4 3 5 11 1 19 -7 21 -12 19 -10 -4z"/>
<path d="M1295 2161 c3 -2 0 -10 -7 -18 -8 -10 -8 -17 0 -25 9 -9 12 -8 12 6
0 11 7 24 16 30 13 10 13 12 -5 12 -11 0 -18 -2 -16 -5z"/>
<path d="M2046 2155 c-3 -8 -1 -15 4 -15 6 0 10 7 10 15 0 8 -2 15 -4 15 -2 0
-6 -7 -10 -15z"/>
<path d="M1969 2153 c0 -5 -2 -21 -4 -38 -2 -16 -1 -22 1 -13 4 13 13 16 37
13 l32 -5 -28 12 c-16 7 -25 18 -23 25 3 7 1 13 -4 13 -6 0 -10 -3 -11 -7z"/>
<path d="M2080 2145 c-7 -9 -10 -18 -6 -22 3 -3 6 0 6 7 0 10 3 9 13 -3 11
-14 15 -14 37 -1 l25 14 -29 -6 c-20 -5 -27 -3 -22 4 10 17 -11 23 -24 7z"/>
<path d="M2338 2143 c7 -3 16 -2 19 1 4 3 -2 6 -13 5 -11 0 -14 -3 -6 -6z"/>
<path d="M2620 2141 c0 -6 4 -13 10 -16 6 -3 7 1 4 9 -7 18 -14 21 -14 7z"/>
<path d="M2690 2140 c0 -8 5 -22 10 -30 9 -13 10 -13 10 0 0 8 -5 22 -10 30
-9 13 -10 13 -10 0z"/>
<path d="M1443 2120 c4 -25 13 -34 27 -25 8 5 8 11 -1 21 -7 9 -8 14 -1 14 6
0 13 -8 16 -18 8 -23 36 -25 36 -3 1 14 2 13 11 -1 5 -10 15 -18 20 -18 6 0 7
5 3 12 -5 7 -3 8 7 2 22 -13 70 -14 62 0 -4 6 1 5 10 -3 15 -12 17 -11 18 5 0
18 1 18 9 -1 8 -19 9 -19 9 3 1 20 -3 22 -34 19 -19 -2 -36 0 -38 6 -2 6 -9 7
-16 3 -11 -7 -11 -10 0 -17 10 -6 10 -9 2 -9 -6 0 -14 4 -18 9 -3 6 -21 8 -40
7 -19 -2 -38 0 -41 5 -3 5 -14 9 -25 9 -13 0 -18 -6 -16 -20z"/>
<path d="M2570 2131 c0 -5 -3 -18 -6 -28 -5 -15 -4 -16 5 -3 8 11 13 12 19 3
11 -17 59 -34 77 -27 18 7 15 56 -3 62 -15 5 -15 -3 -2 -29 8 -14 7 -19 -2
-20 -29 -3 -44 3 -65 27 -13 14 -23 21 -23 15z"/>
<path d="M2910 2130 c0 -5 5 -10 10 -10 6 0 10 5 10 10 0 6 -4 10 -10 10 -5 0
-10 -4 -10 -10z"/>
<path d="M2481 2104 c0 -11 3 -14 6 -6 3 7 2 16 -1 19 -3 4 -6 -2 -5 -13z"/>
<path d="M2030 2100 c-13 -8 -12 -10 3 -10 9 0 17 5 17 10 0 12 -1 12 -20 0z"/>
<path d="M2125 2100 c-3 -6 1 -7 9 -4 18 7 21 14 7 14 -6 0 -13 -4 -16 -10z"/>
<path d="M2846 2095 c-24 -25 -19 -39 6 -15 12 11 19 22 16 25 -3 3 -13 -1
-22 -10z"/>
<path d="M2886 2094 c-8 -22 -7 -34 3 -34 12 0 21 39 11 45 -4 3 -11 -2 -14
-11z"/>
<path d="M1221 2084 c0 -11 3 -14 6 -6 3 7 2 16 -1 19 -3 4 -6 -2 -5 -13z"/>
<path d="M1250 2090 c0 -5 5 -10 10 -10 6 0 10 5 10 10 0 6 -4 10 -10 10 -5 0
-10 -4 -10 -10z"/>
<path d="M2426 2065 c4 -8 8 -15 10 -15 2 0 4 7 4 15 0 8 -4 15 -10 15 -5 0
-7 -7 -4 -15z"/>
<path d="M2493 2050 c11 -29 42 -46 53 -29 3 5 -2 9 -10 9 -8 0 -17 9 -21 19
-3 11 -12 21 -19 24 -11 4 -12 0 -3 -23z"/>
<path d="M1220 2039 c-19 -17 -27 -26 -18 -19 9 6 22 9 28 5 5 -3 10 -1 10 6
0 6 8 18 18 25 9 7 12 14 7 14 -6 0 -26 -14 -45 -31z"/>
<path d="M2535 2060 c-3 -6 1 -7 9 -4 18 7 21 14 7 14 -6 0 -13 -4 -16 -10z"/>
<path d="M2770 2050 c0 -11 2 -20 4 -20 2 0 6 9 9 20 3 11 1 20 -4 20 -5 0 -9
-9 -9 -20z"/>
<path d="M1149 2046 c9 -11 7 -15 -11 -19 -13 -4 -26 -1 -30 6 -5 8 -8 7 -8
-4 0 -9 -7 -20 -16 -23 -9 -4 -14 -9 -11 -12 3 -3 19 2 36 11 34 17 51 13 51
-12 0 -9 -6 -13 -14 -10 -8 3 -19 0 -25 -7 -10 -12 -4 -12 82 -7 5 1 5 6 2 11
-4 6 -11 8 -16 5 -5 -4 -9 1 -9 9 0 9 -5 16 -11 16 -6 0 -8 8 -4 19 4 12 0 21
-11 25 -14 5 -15 4 -5 -8z"/>
<path d="M1360 2050 c-13 -8 -13 -10 2 -10 9 0 18 -4 20 -8 2 -4 17 -5 33 -1
24 5 26 7 7 8 -13 0 -20 6 -17 11 8 13 -25 13 -45 0z"/>
<path d="M2805 2050 c-3 -5 -1 -10 4 -10 6 0 11 5 11 10 0 6 -2 10 -4 10 -3 0
-8 -4 -11 -10z"/>
<path d="M2856 2052 c-3 -6 0 -13 6 -15 10 -4 10 -6 1 -6 -7 -1 -13 -8 -13
-17 0 -20 22 -13 26 8 3 21 -12 43 -20 30z"/>
<path d="M2631 2041 c-8 -5 -9 -11 -3 -15 5 -3 12 1 16 9 6 17 6 18 -13 6z"/>
<path d="M1827 2027 c-3 -8 1 -14 8 -14 7 0 11 6 8 14 -3 7 -6 13 -8 13 -2 0
-5 -6 -8 -13z"/>
<path d="M1870 2030 c0 -5 5 -10 11 -10 5 0 7 5 4 10 -3 6 -8 10 -11 10 -2 0
-4 -4 -4 -10z"/>
<path d="M1332 2020 c5 -21 22 -38 34 -33 5 2 21 -5 34 -17 25 -22 40 -26 40
-10 0 6 -4 9 -9 8 -5 -2 -23 9 -40 25 -17 15 -31 24 -31 21 0 -4 -7 -1 -16 6
-12 11 -15 11 -12 0z"/>
<path d="M2215 2020 c3 -5 8 -10 11 -10 2 0 4 5 4 10 0 6 -5 10 -11 10 -5 0
-7 -4 -4 -10z"/>
<path d="M2442 2009 c2 -7 10 -15 17 -17 8 -3 12 1 9 9 -2 7 -10 15 -17 17 -8
3 -12 -1 -9 -9z"/>
<path d="M1413 1998 c-6 -11 29 -10 46 1 10 7 6 9 -13 8 -16 -1 -30 -5 -33 -9z"/>
<path d="M1796 1994 c-4 -9 -4 -19 -1 -22 2 -3 7 3 11 12 4 9 4 19 1 22 -2 3
-7 -3 -11 -12z"/>
<path d="M2135 2000 c-3 -5 -1 -10 4 -10 6 0 11 5 11 10 0 6 -2 10 -4 10 -3 0
-8 -4 -11 -10z"/>
<path d="M2240 2001 c0 -5 8 -17 18 -28 9 -10 14 -14 10 -9 -5 6 -8 18 -8 28
0 10 -4 18 -10 18 -5 0 -10 -4 -10 -9z"/>
<path d="M2645 2000 c-3 -6 1 -7 9 -4 18 7 21 14 7 14 -6 0 -13 -4 -16 -10z"/>
<path d="M2890 1998 c0 -9 5 -20 10 -23 13 -8 13 5 0 25 -8 13 -10 13 -10 -2z"/>
<path d="M1910 1990 c0 -5 5 -10 10 -10 6 0 10 5 10 10 0 6 -4 10 -10 10 -5 0
-10 -4 -10 -10z"/>
<path d="M1995 1990 c-3 -5 -1 -10 4 -10 6 0 11 5 11 10 0 6 -2 10 -4 10 -3 0
-8 -4 -11 -10z"/>
<path d="M2480 1991 c0 -6 4 -13 10 -16 6 -3 7 1 4 9 -7 18 -14 21 -14 7z"/>
<path d="M1045 1980 c-3 -5 -1 -10 4 -10 6 0 11 5 11 10 0 6 -2 10 -4 10 -3 0
-8 -4 -11 -10z"/>
<path d="M1962 1965 c0 -16 2 -22 5 -12 2 9 2 23 0 30 -3 6 -5 -1 -5 -18z"/>
<path d="M2032 1970 c12 -18 38 -35 38 -25 0 9 -34 45 -42 45 -5 0 -3 -9 4
-20z"/>
<path d="M2070 1982 c0 -5 7 -9 15 -9 8 0 12 4 9 9 -3 4 -9 8 -15 8 -5 0 -9
-4 -9 -8z"/>
<path d="M2853 1982 c-9 -6 -6 -11 7 -20 21 -13 26 -6 12 15 -4 7 -13 9 -19 5z"/>
<path d="M1074 1965 c-9 -9 -7 -15 7 -23 22 -14 32 -3 15 19 -9 13 -14 14 -22
4z"/>
<path d="M2115 1970 c3 -5 -1 -10 -10 -10 -15 0 -15 -2 -1 -15 20 -21 26 -19
26 10 0 14 -5 25 -11 25 -5 0 -7 -4 -4 -10z"/>
<path d="M2146 1965 c4 -8 11 -15 18 -15 6 0 3 -5 -6 -11 -10 -5 -18 -20 -19
-32 0 -12 -3 -16 -6 -9 -6 14 -49 16 -58 2 -3 -5 -3 -15 1 -22 5 -8 10 -6 15
8 7 18 8 18 9 -1 1 -20 1 -20 10 0 6 15 9 16 9 4 2 -30 31 -17 31 13 0 17 4
27 10 23 6 -3 10 -1 10 5 0 6 5 8 10 5 6 -4 8 -10 5 -15 -3 -5 -1 -19 6 -31 9
-17 8 -24 -2 -31 -11 -8 -10 -9 3 -4 10 3 21 -1 26 -11 8 -14 10 -14 15 1 4
10 -3 25 -18 40 -14 14 -22 31 -20 38 3 8 -8 24 -24 36 -21 15 -29 18 -25 7z"/>
<path d="M2230 1963 c0 -13 5 -23 10 -23 13 0 13 11 0 30 -8 12 -10 11 -10 -7z"/>
<path d="M2772 1965 c-11 -12 -10 -15 3 -15 8 0 15 7 15 15 0 18 -2 18 -18 0z"/>
<path d="M2970 1976 c0 -2 7 -6 15 -10 8 -3 15 -1 15 4 0 6 -7 10 -15 10 -8 0
-15 -2 -15 -4z"/>
<path d="M1337 1940 c-4 -17 -2 -18 13 -10 28 15 34 30 12 30 -11 0 -22 -9
-25 -20z"/>
<path d="M2740 1940 c6 -11 13 -20 16 -20 2 0 0 9 -6 20 -6 11 -13 20 -16 20
-2 0 0 -9 6 -20z"/>
<path d="M2930 1945 c0 -8 2 -15 4 -15 2 0 6 7 10 15 3 8 1 15 -4 15 -6 0 -10
-7 -10 -15z"/>
<path d="M1770 1939 c0 -5 5 -7 10 -4 6 3 10 8 10 11 0 2 -4 4 -10 4 -5 0 -10
-5 -10 -11z"/>
<path d="M2500 1940 c0 -5 6 -10 14 -10 26 0 38 -26 28 -64 -8 -28 -7 -34 4
-29 16 6 19 -13 4 -22 -15 -9 -43 16 -32 27 11 11 4 48 -9 48 -5 0 -9 -5 -9
-11 0 -5 -6 -7 -12 -3 -10 6 -10 4 0 -8 7 -9 11 -20 10 -25 -2 -6 12 -24 31
-41 20 -20 31 -38 27 -47 -9 -24 12 -17 29 9 15 23 15 27 -8 63 -19 30 -22 42
-13 56 9 15 6 23 -17 43 -30 25 -47 31 -47 14z m80 -158 c0 -10 -4 -10 -16 2
-8 9 -12 21 -8 27 7 13 24 -7 24 -29z"/>
<path d="M990 1925 c-7 -8 -9 -15 -6 -15 4 0 14 7 22 15 9 8 11 15 6 15 -5 0
-15 -7 -22 -15z"/>
<path d="M1040 1930 c19 -13 30 -13 30 0 0 6 -10 10 -22 10 -19 0 -20 -2 -8
-10z"/>
<path d="M1135 1930 c3 -5 16 -10 28 -9 21 0 21 1 2 9 -28 12 -37 12 -30 0z"/>
<path d="M2025 1930 c3 -5 8 -10 11 -10 2 0 4 5 4 10 0 6 -5 10 -11 10 -5 0
-7 -4 -4 -10z"/>
<path d="M2840 1932 c0 -12 19 -26 26 -19 2 2 -2 10 -11 17 -9 8 -15 8 -15 2z"/>
<path d="M1273 1912 c1 -14 5 -18 11 -12 7 7 6 14 -1 21 -9 9 -12 7 -10 -9z"/>
<path d="M2230 1920 c0 -5 5 -10 10 -10 6 0 10 5 10 10 0 6 -4 10 -10 10 -5 0
-10 -4 -10 -10z"/>
<path d="M2450 1920 c0 -4 6 -13 14 -20 12 -9 15 -8 13 8 -1 17 -27 28 -27 12z"/>
<path d="M2980 1921 c0 -6 4 -13 10 -16 6 -3 7 1 4 9 -7 18 -14 21 -14 7z"/>
<path d="M1026 1911 c-3 -5 1 -14 9 -21 13 -10 15 -9 15 9 0 21 -14 28 -24 12z"/>
<path d="M1973 1896 c0 -22 3 -24 46 -23 38 0 47 4 47 18 0 22 -36 21 -37 -1
0 -10 -3 -9 -9 5 -5 11 -9 15 -9 8 -1 -7 -8 -10 -17 -6 -13 5 -13 7 -2 14 10
7 9 9 -3 9 -11 0 -16 -8 -16 -24z"/>
<path d="M2947 1906 c-4 -9 -2 -16 4 -16 6 0 19 -10 30 -22 10 -13 18 -17 19
-10 0 6 -3 12 -8 12 -4 0 -14 12 -23 26 -13 21 -17 23 -22 10z"/>
<path d="M1081 1883 c0 -16 3 -22 6 -15 2 6 10 9 16 5 16 -10 77 -11 71 -1 -3
4 0 8 5 8 6 0 11 -9 11 -20 0 -23 18 -27 26 -6 3 8 12 12 20 9 9 -3 14 2 14
14 0 18 -7 20 -65 18 -40 -1 -65 3 -65 9 0 6 -5 4 -10 -4 -6 -10 -10 -11 -10
-2 0 6 -4 12 -10 12 -5 0 -10 -12 -9 -27z"/>
<path d="M1786 1897 c3 -10 9 -15 12 -12 3 3 0 11 -7 18 -10 9 -11 8 -5 -6z"/>
<path d="M2250 1895 c-8 -9 -8 -15 -2 -15 12 0 26 19 19 26 -2 2 -10 -2 -17
-11z"/>
<path d="M2616 1894 c-4 -9 -4 -19 -1 -22 2 -3 7 3 11 12 4 9 4 19 1 22 -2 3
-7 -3 -11 -12z"/>
<path d="M985 1886 c-11 -8 -14 -15 -8 -19 6 -4 16 0 23 8 17 21 8 28 -15 11z"/>
<path d="M1930 1890 c0 -5 5 -10 11 -10 5 0 7 5 4 10 -3 6 -8 10 -11 10 -2 0
-4 -4 -4 -10z"/>
<path d="M2790 1876 c0 -7 9 -21 20 -31 16 -14 20 -15 20 -4 0 8 -9 22 -20 32
-15 12 -20 13 -20 3z"/>
<path d="M2437 1864 c6 -15 23 -19 23 -5 0 5 -7 11 -14 14 -10 4 -13 1 -9 -9z"/>
<path d="M2841 1868 c8 -7 20 -20 27 -28 11 -13 12 -12 6 5 -8 21 -23 35 -38
35 -6 0 -3 -6 5 -12z"/>
<path d="M919 1853 c-13 -16 -12 -17 4 -4 9 7 17 15 17 17 0 8 -8 3 -21 -13z"/>
<path d="M2690 1859 c0 -5 5 -7 10 -4 6 3 10 8 10 11 0 2 -4 4 -10 4 -5 0 -10
-5 -10 -11z"/>
<path d="M2756 1857 c3 -10 9 -15 12 -12 3 3 0 11 -7 18 -10 9 -11 8 -5 -6z"/>
<path d="M970 1845 c14 -7 27 -11 30 -9 6 7 -22 24 -40 23 -9 0 -5 -6 10 -14z"/>
<path d="M2415 1850 c3 -5 8 -10 11 -10 2 0 4 5 4 10 0 6 -5 10 -11 10 -5 0
-7 -4 -4 -10z"/>
<path d="M2940 1844 c0 -8 -3 -13 -7 -11 -5 3 -8 -15 -8 -38 0 -24 3 -39 7
-32 4 7 8 22 8 35 0 13 5 32 10 43 7 13 7 19 0 19 -5 0 -10 -7 -10 -16z"/>
<path d="M1018 1843 c7 -3 16 -2 19 1 4 3 -2 6 -13 5 -11 0 -14 -3 -6 -6z"/>
<path d="M1157 1836 c-4 -10 -13 -16 -21 -13 -7 3 -19 0 -25 -6 -8 -8 -11 -6
-12 9 0 11 -3 14 -6 6 -4 -10 -8 -10 -19 -1 -11 9 -14 6 -13 -17 0 -16 3 -23
6 -16 2 6 10 9 16 5 22 -14 60 -14 69 -1 5 9 11 10 16 3 10 -14 34 -13 40 3 2
7 -5 12 -16 12 -12 0 -22 8 -24 18 -3 16 -4 16 -11 -2z"/>
<path d="M1796 1825 c8 -37 14 -45 14 -19 0 10 -5 26 -10 34 -8 11 -9 7 -4
-15z"/>
<path d="M1950 1825 c0 -14 5 -25 10 -25 9 0 11 7 9 27 0 4 8 10 18 14 14 6
12 8 -9 8 -23 1 -28 -3 -28 -24z"/>
<path d="M2044 1834 c6 -15 4 -15 -10 -3 -14 11 -18 11 -21 1 -3 -6 -9 -10
-14 -6 -5 3 -9 -2 -9 -10 0 -19 26 -21 33 -3 4 10 6 10 6 0 1 -8 16 -13 40
-13 22 0 42 5 44 13 4 9 6 8 6 -2 1 -11 4 -11 18 0 11 10 14 10 9 2 -4 -8 -1
-13 8 -13 10 0 16 9 16 25 0 25 -14 33 -25 15 -4 -6 -15 -8 -25 -5 -12 4 -20
0 -23 -12 -4 -17 -5 -17 -6 0 -1 20 -17 23 -24 5 -3 -8 -6 -6 -6 5 -1 9 -6 17
-12 17 -6 0 -8 -7 -5 -16z"/>
<path d="M1885 1830 c3 -5 8 -10 11 -10 2 0 4 5 4 10 0 6 -5 10 -11 10 -5 0
-7 -4 -4 -10z"/>
<path d="M926 1815 c4 -8 11 -15 16 -15 6 0 5 6 -2 15 -7 8 -14 15 -16 15 -2
0 -1 -7 2 -15z"/>
<path d="M1216 1808 c-2 -11 1 -18 10 -18 8 0 14 5 14 11 0 5 4 8 10 4 5 -3 6
-13 3 -23 -4 -12 -3 -14 4 -7 6 6 13 19 17 30 5 17 1 20 -24 20 -19 0 -31 -6
-34 -17z"/>
<path d="M2184 1810 c0 -11 5 -19 11 -17 5 2 10 10 10 17 0 7 -5 15 -10 17 -6
2 -11 -6 -11 -17z"/>
<path d="M2288 1808 c-10 -10 -15 -18 -10 -18 4 0 -1 -5 -11 -11 -9 -6 -15
-14 -12 -20 4 -5 2 -9 -4 -9 -16 0 -25 -60 -11 -73 10 -9 12 -8 7 6 -7 19 8
67 21 67 5 0 20 -27 33 -60 13 -33 27 -60 30 -60 8 0 20 42 14 49 -3 2 -5 -1
-5 -7 0 -28 -19 -8 -40 42 -17 43 -19 59 -10 75 6 12 13 21 15 21 2 0 23 -18
47 -39 41 -38 42 -40 31 -75 -6 -20 -7 -36 -2 -36 5 0 9 9 9 19 0 11 5 21 11
23 9 3 8 11 -1 28 -15 28 -67 80 -80 80 -5 0 -10 4 -12 8 -1 4 -11 0 -20 -10z"/>
<path d="M960 1806 c0 -2 7 -9 15 -16 12 -10 15 -10 15 4 0 9 -7 16 -15 16 -8
0 -15 -2 -15 -4z"/>
<path d="M2656 1801 c-4 -7 -5 -15 -2 -18 9 -9 19 4 14 18 -4 11 -6 11 -12 0z"/>
<path d="M2716 1791 c-4 -7 -5 -15 -2 -18 9 -9 19 4 14 18 -4 11 -6 11 -12 0z"/>
<path d="M2880 1784 c0 -8 5 -12 10 -9 6 3 10 10 10 16 0 5 -4 9 -10 9 -5 0
-10 -7 -10 -16z"/>
<path d="M916 1775 c-3 -9 -6 -22 -5 -28 0 -7 5 -1 10 12 5 13 8 26 5 28 -2 2
-6 -3 -10 -12z"/>
<path d="M2150 1780 c0 -5 7 -10 16 -10 8 0 12 5 9 10 -3 6 -10 10 -16 10 -5
0 -9 -4 -9 -10z"/>
<path d="M947 1773 c-4 -7 -2 -49 3 -63 1 -3 5 6 9 20 5 19 14 25 39 26 40 2
41 -7 2 -29 -32 -19 -64 -64 -38 -54 7 2 12 10 11 16 -2 6 1 11 6 11 4 0 24
13 42 30 19 16 40 27 48 25 12 -5 12 -3 0 11 -7 9 -15 12 -16 7 -4 -10 -75 -9
-92 1 -5 4 -12 3 -14 -1z"/>
<path d="M1107 1738 c-14 -24 -46 -83 -71 -133 -25 -49 -46 -85 -46 -80 -10
78 -20 101 -20 43 0 -20 7 -41 15 -48 14 -12 14 -15 0 -30 -8 -9 -15 -31 -15
-48 l0 -32 -235 0 -235 0 0 95 0 95 228 0 c146 0 232 4 242 11 12 9 12 10 -4
5 -11 -4 -23 -1 -28 6 -6 10 -8 10 -8 1 0 -10 -51 -13 -220 -13 l-220 0 -1
-37 c-1 -21 -1 -43 0 -49 1 -6 -12 -14 -28 -17 -21 -4 -32 -15 -40 -37 -8 -24
-8 -31 2 -27 6 2 13 13 15 25 2 12 7 22 12 22 5 0 15 3 24 6 22 8 21 -33 0
-57 -30 -34 20 -42 249 -40 140 1 207 -2 207 -9 0 -6 -9 -29 -21 -51 -11 -23
-18 -43 -16 -45 6 -7 47 64 47 82 0 8 4 14 10 14 10 0 3 -27 -12 -47 -6 -7 -8
-18 -6 -25 3 -7 29 39 58 102 30 63 83 171 118 239 35 68 59 120 53 117 -6 -4
-20 -25 -31 -47 -11 -21 -23 -39 -25 -39 -3 0 4 18 15 41 29 55 18 61 -13 7z
m-64 -173 c-3 -9 -8 -14 -10 -11 -3 3 -2 9 2 15 9 16 15 13 8 -4z m-43 -105
c0 -5 -5 -10 -11 -10 -5 0 -7 5 -4 10 3 6 8 10 11 10 2 0 4 -4 4 -10z"/>
<path d="M1795 1769 c-4 -6 -5 -12 -2 -15 2 -3 7 2 10 11 7 17 1 20 -8 4z"/>
<path d="M2440 1760 c0 -11 2 -20 4 -20 2 0 6 9 9 20 3 11 1 20 -4 20 -5 0 -9
-9 -9 -20z"/>
<path d="M2475 1760 c3 -5 11 -10 16 -10 6 0 7 5 4 10 -3 6 -11 10 -16 10 -6
0 -7 -4 -4 -10z"/>
<path d="M2202 1734 c-7 -8 -8 -14 -3 -14 10 0 25 19 20 25 -2 1 -10 -3 -17
-11z"/>
<path d="M2886 1741 c-3 -5 1 -14 9 -21 12 -10 15 -10 15 3 0 19 -16 31 -24
18z"/>
<path d="M1445 1730 c3 -5 8 -10 11 -10 2 0 4 5 4 10 0 6 -5 10 -11 10 -5 0
-7 -4 -4 -10z"/>
<path d="M2510 1730 c0 -5 5 -10 11 -10 5 0 7 5 4 10 -3 6 -8 10 -11 10 -2 0
-4 -4 -4 -10z"/>
<path d="M920 1710 c0 -11 4 -20 9 -20 5 0 7 9 4 20 -3 11 -7 20 -9 20 -2 0
-4 -9 -4 -20z"/>
<path d="M1240 1726 c0 -4 7 -14 15 -22 8 -9 15 -11 15 -6 0 5 -7 15 -15 22
-8 7 -15 9 -15 6z"/>
<path d="M1786 1713 c-6 -14 -5 -15 5 -6 7 7 10 15 7 18 -3 3 -9 -2 -12 -12z"/>
<path d="M2960 1721 c0 -6 5 -13 10 -16 6 -3 10 1 10 9 0 9 -4 16 -10 16 -5 0
-10 -4 -10 -9z"/>
<path d="M2470 1701 c0 -25 6 -27 13 -6 4 8 2 17 -3 20 -6 4 -10 -3 -10 -14z"/>
<path d="M2732 1700 c0 -14 2 -19 5 -12 2 6 2 18 0 25 -3 6 -5 1 -5 -13z"/>
<path d="M616 1695 c-3 -9 -6 -22 -5 -28 0 -7 5 -1 10 12 5 13 8 26 5 28 -2 2
-6 -3 -10 -12z"/>
<path d="M1030 1702 c0 -7 -6 -12 -14 -12 -7 0 -19 -7 -26 -15 -9 -10 -9 -15
-1 -15 6 0 11 5 11 10 0 6 6 10 14 10 17 0 31 18 22 27 -3 4 -6 1 -6 -5z"/>
<path d="M1855 1700 c-3 -5 -1 -10 4 -10 6 0 11 5 11 10 0 6 -2 10 -4 10 -3 0
-8 -4 -11 -10z"/>
<path d="M2170 1700 c0 -5 5 -10 11 -10 5 0 7 5 4 10 -3 6 -8 10 -11 10 -2 0
-4 -4 -4 -10z"/>
<path d="M2555 1700 c3 -5 8 -10 11 -10 2 0 4 5 4 10 0 6 -5 10 -11 10 -5 0
-7 -4 -4 -10z"/>
<path d="M2886 1685 c-9 -26 -7 -32 5 -12 6 10 9 21 6 23 -2 3 -7 -2 -11 -11z"/>
<path d="M2060 1680 c-12 -8 -11 -10 8 -10 12 0 22 5 22 10 0 13 -11 13 -30 0z"/>
<path d="M920 1672 c0 -5 7 -15 15 -22 13 -11 18 -11 28 0 8 9 9 11 0 6 -6 -3
-19 1 -27 10 -9 8 -16 11 -16 6z"/>
<path d="M2182 1663 c9 -10 14 -24 12 -31 -1 -7 0 -8 3 -2 6 13 40 13 48 0 4
-6 11 -8 16 -4 16 9 -11 34 -37 34 -12 0 -26 5 -29 10 -3 6 -11 10 -17 10 -6
0 -5 -7 4 -17z"/>
<path d="M2653 1673 c-20 -7 -15 -23 7 -23 11 0 20 4 20 9 0 13 -12 19 -27 14z"/>
<path d="M2975 1669 c-11 -17 1 -21 15 -4 8 9 8 15 2 15 -6 0 -14 -5 -17 -11z"/>
<path d="M2000 1660 c-13 -8 -13 -10 2 -10 9 0 20 5 23 10 8 13 -5 13 -25 0z"/>
<path d="M2275 1650 c10 -11 20 -18 23 -16 5 6 -23 36 -34 36 -4 0 1 -9 11
-20z"/>
<path d="M2557 1655 c-4 -8 -2 -17 3 -20 6 -4 10 3 10 14 0 25 -6 27 -13 6z"/>
<path d="M2511 1644 c0 -11 3 -14 6 -6 3 7 2 16 -1 19 -3 4 -6 -2 -5 -13z"/>
<path d="M2940 1640 c0 -11 5 -20 10 -20 6 0 10 9 10 20 0 11 -4 20 -10 20 -5
0 -10 -9 -10 -20z"/>
<path d="M1005 1640 c-3 -5 -1 -10 4 -10 6 0 11 5 11 10 0 6 -2 10 -4 10 -3 0
-8 -4 -11 -10z"/>
<path d="M1120 1639 c0 -5 5 -7 10 -4 6 3 10 8 10 11 0 2 -4 4 -10 4 -5 0 -10
-5 -10 -11z"/>
<path d="M2143 1615 c-4 -13 -16 -14 -63 -9 -33 4 -65 2 -75 -4 -15 -8 -9 -10
26 -10 24 0 55 -2 69 -5 14 -3 31 -6 38 -6 25 -2 11 -21 -15 -22 -24 0 -25 -2
-8 -8 17 -7 18 -9 2 -17 -15 -9 -15 -14 -2 -58 10 -33 12 -54 5 -67 -6 -10
-10 -22 -9 -26 3 -19 -2 -23 -15 -11 -10 9 -11 15 -2 20 7 5 5 8 -6 8 -9 0
-22 -8 -27 -17 -6 -10 -11 -13 -11 -7 0 7 -7 14 -15 18 -11 4 -15 -1 -15 -19
0 -14 4 -25 10 -25 5 0 7 8 4 18 -5 14 -3 14 10 -2 9 -11 16 -14 16 -8 0 20
20 13 30 -10 5 -13 9 -17 9 -10 1 6 10 12 21 12 22 0 27 19 9 37 -8 8 -4 15
13 27 21 16 22 18 6 30 -21 15 -17 76 7 113 9 13 11 24 5 28 -6 3 -10 13 -10
21 0 8 5 12 10 9 6 -3 10 -1 10 4 0 17 -20 13 -27 -4z"/>
<path d="M2581 1606 c-1 -25 -3 -27 -18 -15 -13 11 -15 11 -9 1 13 -22 -2 -62
-22 -56 -15 5 -15 4 1 -6 10 -7 19 -10 20 -8 1 1 11 17 23 33 14 21 18 37 13
55 -7 25 -7 25 -8 -4z"/>
<path d="M2267 1613 c-4 -3 -7 -11 -7 -17 0 -6 5 -5 12 2 6 6 9 14 7 17 -3 3
-9 2 -12 -2z"/>
<path d="M2375 1609 c-4 -6 -5 -12 -2 -15 2 -3 7 2 10 11 7 17 1 20 -8 4z"/>
<path d="M2701 1604 c0 -11 3 -14 6 -6 3 7 2 16 -1 19 -3 4 -6 -2 -5 -13z"/>
<path d="M2740 1616 c0 -2 7 -9 15 -16 13 -11 14 -10 9 4 -5 14 -24 23 -24 12z"/>
<path d="M2976 1603 c-4 -9 -2 -21 4 -27 8 -8 9 -6 5 7 -4 10 -2 17 4 17 6 0
11 5 11 10 0 16 -17 11 -24 -7z"/>
<path d="M2411 1594 c0 -11 3 -14 6 -6 3 7 2 16 -1 19 -3 4 -6 -2 -5 -13z"/>
<path d="M1090 1589 c0 -5 14 -9 32 -9 36 0 31 11 -7 15 -14 2 -25 -1 -25 -6z"/>
<path d="M2050 1576 c0 -9 5 -16 10 -16 6 0 10 4 10 9 0 6 -4 13 -10 16 -5 3
-10 -1 -10 -9z"/>
<path d="M554 1562 c3 -17 1 -22 -10 -18 -8 3 -14 -1 -14 -9 0 -9 6 -12 15 -9
11 5 14 2 8 -12 -6 -18 -5 -18 13 -3 10 9 26 19 34 22 10 4 9 6 -6 6 -12 1
-26 11 -33 24 l-12 22 5 -23z"/>
<path d="M1396 1567 c3 -10 9 -15 12 -12 3 3 0 11 -7 18 -10 9 -11 8 -5 -6z"/>
<path d="M2000 1570 c-8 -5 -12 -11 -9 -14 2 -3 11 -1 19 4 8 5 12 11 9 14 -2
3 -11 1 -19 -4z"/>
<path d="M1370 1557 c0 -9 4 -18 9 -21 5 -4 8 1 7 9 -3 21 -16 31 -16 12z"/>
<path d="M1500 1559 c0 -5 5 -7 10 -4 6 3 10 8 10 11 0 2 -4 4 -10 4 -5 0 -10
-5 -10 -11z"/>
<path d="M2494 1555 c-3 -8 -4 -20 -2 -27 3 -7 7 -1 10 15 6 29 1 36 -8 12z"/>
<path d="M643 1535 c0 -14 3 -25 8 -25 5 0 9 11 9 25 0 14 -4 25 -9 25 -5 0
-8 -11 -8 -25z"/>
<path d="M670 1535 c0 -16 6 -25 15 -25 9 0 15 9 15 25 0 16 -6 25 -15 25 -9
0 -15 -9 -15 -25z m17 -7 c-3 -8 -6 -5 -6 6 -1 11 2 17 5 13 3 -3 4 -12 1 -19z"/>
<path d="M721 1533 c0 -15 3 -22 6 -14 4 11 7 11 14 0 4 -7 11 -10 16 -6 9 9
-8 39 -25 45 -8 2 -12 -7 -11 -25z"/>
<path d="M780 1545 c0 -8 6 -15 13 -15 8 0 7 -4 -3 -10 -13 -8 -12 -10 2 -10
13 0 17 7 16 25 -2 26 -28 36 -28 10z"/>
<path d="M895 1550 c3 -5 -9 -6 -30 -3 -32 5 -35 3 -35 -18 0 -19 2 -21 10 -9
9 13 10 13 11 0 0 -10 3 -8 9 5 7 17 9 17 9 3 1 -11 9 -18 21 -18 12 0 20 7
21 18 0 15 1 15 8 -2 4 -11 10 -15 14 -10 3 6 3 15 -1 20 -9 13 -45 27 -37 14z"/>
<path d="M1086 1547 c-11 -8 -16 -20 -13 -28 4 -10 6 -9 6 4 1 9 7 17 15 17 8
0 18 5 21 10 9 14 -8 12 -29 -3z"/>
<path d="M2965 1549 c-12 -18 3 -22 20 -5 14 14 14 16 1 16 -8 0 -18 -5 -21
-11z"/>
<path d="M2026 1542 c-2 -4 4 -9 15 -9 11 -1 17 2 14 8 -7 11 -22 12 -29 1z"/>
<path d="M2660 1544 c0 -6 7 -17 15 -24 20 -17 19 -30 -2 -30 -15 -1 -14 -4 6
-20 28 -24 37 -25 45 -5 3 9 -9 30 -29 52 -19 21 -35 33 -35 27z"/>
<path d="M1137 1533 c-4 -3 -7 -11 -7 -17 0 -6 5 -5 12 2 6 6 9 14 7 17 -3 3
-9 2 -12 -2z"/>
<path d="M1177 1533 c-4 -3 -7 -11 -7 -17 0 -6 5 -5 12 2 6 6 9 14 7 17 -3 3
-9 2 -12 -2z"/>
<path d="M1338 1510 c-3 -16 -1 -30 4 -30 4 0 8 7 8 15 0 18 17 20 22 3 3 -7
7 -5 11 6 4 10 3 15 -3 11 -6 -3 -13 1 -16 9 -10 25 -21 19 -26 -14z"/>
<path d="M2366 1527 c3 -10 9 -15 12 -12 3 3 0 11 -7 18 -10 9 -11 8 -5 -6z"/>
<path d="M2400 1520 c0 -5 5 -10 10 -10 6 0 10 5 10 10 0 6 -4 10 -10 10 -5 0
-10 -4 -10 -10z"/>
<path d="M2626 1515 c4 -8 11 -15 16 -15 6 0 5 6 -2 15 -7 8 -14 15 -16 15 -2
0 -1 -7 2 -15z"/>
<path d="M1098 1513 c7 -3 16 -2 19 1 4 3 -2 6 -13 5 -11 0 -14 -3 -6 -6z"/>
<path d="M382 1471 c-16 -31 -18 -40 -8 -44 9 -4 16 7 20 33 3 21 12 41 18 43
9 4 9 6 2 6 -7 1 -21 -17 -32 -38z"/>
<path d="M2010 1501 c0 -5 5 -13 10 -16 6 -3 10 -2 10 4 0 5 -4 13 -10 16 -5
3 -10 2 -10 -4z"/>
<path d="M2303 1500 c-13 -5 -23 -11 -23 -14 0 -7 40 6 46 15 6 10 6 10 -23
-1z"/>
<path d="M2980 1489 c0 -5 5 -7 10 -4 6 3 10 8 10 11 0 2 -4 4 -10 4 -5 0 -10
-5 -10 -11z"/>
<path d="M629 1482 c-1 -4 -1 -11 1 -17 1 -5 -4 -4 -11 3 -18 17 -89 16 -89
-2 0 -11 17 -14 70 -15 53 0 70 3 70 13 0 14 -39 30 -41 18z"/>
<path d="M687 1483 c-13 -12 -7 -33 8 -33 8 0 15 9 15 20 0 20 -11 26 -23 13z"/>
<path d="M722 1470 c0 -14 2 -19 5 -12 2 6 2 18 0 25 -3 6 -5 1 -5 -13z"/>
<path d="M743 1470 c1 -11 7 -20 14 -20 15 0 15 2 7 24 -9 23 -23 20 -21 -4z"/>
<path d="M785 1480 c-7 -12 2 -30 16 -30 5 0 9 9 9 20 0 21 -15 27 -25 10z"/>
<path d="M2456 1477 c3 -10 9 -15 12 -12 3 3 0 11 -7 18 -10 9 -11 8 -5 -6z"/>
<path d="M2540 1486 c0 -2 7 -7 16 -10 8 -3 12 -2 9 4 -6 10 -25 14 -25 6z"/>
<path d="M1046 1471 c-11 -4 -15 -10 -10 -13 5 -4 18 0 29 8 20 15 12 17 -19
5z"/>
<path d="M2041 1464 c0 -11 3 -14 6 -6 3 7 2 16 -1 19 -3 4 -6 -2 -5 -13z"/>
<path d="M2298 1457 c-16 -13 -28 -26 -28 -31 0 -4 7 0 16 8 14 14 35 21 56
17 4 0 5 6 2 14 -8 20 -14 19 -46 -8z"/>
<path d="M2587 1460 c-3 -11 -1 -23 4 -26 5 -3 9 6 9 20 0 31 -6 34 -13 6z"/>
<path d="M1261 1454 c0 -11 3 -14 6 -6 3 7 2 16 -1 19 -3 4 -6 -2 -5 -13z"/>
<path d="M1559 1438 c-1 -13 -1 -27 0 -32 1 -5 -1 -16 -5 -25 -4 -9 -9 -27
-10 -41 -2 -21 -1 -22 7 -8 11 20 23 128 15 128 -4 0 -7 -10 -7 -22z"/>
<path d="M277 1431 c-3 -12 -1 -21 3 -21 14 0 19 15 11 29 -6 9 -10 7 -14 -8z"/>
<path d="M2546 1436 c3 -9 11 -16 16 -16 13 0 5 23 -10 28 -7 2 -10 -2 -6 -12z"/>
<path d="M317 1423 c-8 -10 -18 -31 -21 -48 l-6 -30 11 28 c6 15 14 25 19 22
9 -5 25 33 18 41 -3 2 -12 -4 -21 -13z"/>
<path d="M2812 1420 c-6 -10 -8 -21 -3 -24 5 -3 11 4 14 16 8 29 4 32 -11 8z"/>
<path d="M1277 1410 c3 -11 10 -23 16 -27 7 -4 8 0 4 11 -4 10 -7 22 -7 27 0
5 -4 9 -9 9 -5 0 -7 -9 -4 -20z"/>
<path d="M2620 1402 c-18 -16 -26 -28 -19 -28 16 1 76 56 62 56 -6 0 -25 -13
-43 -28z"/>
<path d="M2850 1421 c0 -5 5 -13 10 -16 6 -3 10 -2 10 4 0 5 -4 13 -10 16 -5
3 -10 2 -10 -4z"/>
<path d="M348 1395 c-3 -13 0 -27 6 -30 8 -3 7 -7 -2 -11 -17 -8 -5 -24 13
-18 11 5 12 11 4 26 -6 11 -8 26 -5 33 3 8 1 17 -3 20 -5 2 -11 -6 -13 -20z"/>
<path d="M397 1413 c-12 -11 -8 -41 6 -46 10 -4 14 4 14 24 0 28 -7 36 -20 22z"/>
<path d="M1811 1396 c-12 -13 -24 -30 -25 -37 -2 -8 -6 -22 -10 -31 -4 -9 -6
-27 -3 -40 3 -17 5 -15 6 10 0 17 6 32 11 32 6 0 10 11 10 24 0 25 22 51 33
39 4 -3 7 -1 7 5 0 24 26 10 53 -28 16 -22 33 -38 38 -34 13 7 -61 84 -81 84
-9 0 -27 -11 -39 -24z"/>
<path d="M2531 1404 c0 -11 3 -14 6 -6 3 7 2 16 -1 19 -3 4 -6 -2 -5 -13z"/>
<path d="M2572 1404 c-7 -8 -8 -14 -3 -14 10 0 25 19 20 25 -2 1 -10 -3 -17
-11z"/>
<path d="M450 1393 c0 -10 4 -24 9 -32 7 -11 10 -11 17 0 4 7 3 14 -4 17 -6 2
-8 10 -5 18 3 8 0 14 -6 14 -6 0 -11 -8 -11 -17z"/>
<path d="M1195 1400 c-3 -5 -1 -10 4 -10 6 0 11 5 11 10 0 6 -2 10 -4 10 -3 0
-8 -4 -11 -10z"/>
<path d="M2987 1404 c-4 -4 -7 -14 -7 -23 0 -11 3 -12 11 -4 6 6 10 16 7 23
-2 6 -7 8 -11 4z"/>
<path d="M260 1376 c0 -31 6 -34 13 -6 3 11 1 23 -4 26 -5 3 -9 -6 -9 -20z"/>
<path d="M1951 1378 c-1 -25 3 -28 29 -28 23 0 30 4 30 20 0 23 -15 27 -24 5
-8 -22 -24 -18 -29 8 -4 19 -4 18 -6 -5z"/>
<path d="M2875 1390 c-3 -5 -2 -10 4 -10 5 0 13 5 16 10 3 6 2 10 -4 10 -5 0
-13 -4 -16 -10z"/>
<path d="M2918 1393 c6 -2 18 -2 25 0 6 3 1 5 -13 5 -14 0 -19 -2 -12 -5z"/>
<path d="M1225 1358 c-13 -60 -13 -68 8 -68 11 0 17 -5 14 -12 -2 -7 -10 -12
-16 -10 -6 1 -11 -3 -11 -9 0 -15 21 -6 34 13 7 12 5 20 -7 33 -13 12 -16 26
-11 51 8 43 -1 45 -11 2z"/>
<path d="M2320 1370 c-6 -11 -8 -20 -6 -20 3 0 10 9 16 20 6 11 8 20 6 20 -3
0 -10 -9 -16 -20z"/>
<path d="M2783 1375 c-3 -9 -3 -18 -1 -21 3 -3 8 4 11 16 6 23 -1 27 -10 5z"/>
<path d="M510 1370 c0 -5 7 -10 16 -10 8 0 12 5 9 10 -3 6 -10 10 -16 10 -5 0
-9 -4 -9 -10z"/>
<path d="M1140 1366 c-35 -11 -48 -34 -48 -86 0 -16 4 -10 11 18 12 44 31 64
53 55 6 -2 15 1 19 7 11 17 3 19 -35 6z"/>
<path d="M2947 1367 c-7 -18 3 -67 14 -67 4 0 5 17 2 38 -7 44 -9 47 -16 29z"/>
<path d="M551 1330 c-6 -22 -16 -40 -21 -40 -5 0 -7 -6 -4 -13 3 -8 -5 -19
-18 -25 -23 -12 -22 -12 4 -7 17 3 32 -1 42 -11 21 -20 21 -6 0 17 -14 16 -14
21 5 64 24 54 24 55 13 55 -5 0 -14 -18 -21 -40z"/>
<path d="M1190 1360 c0 -5 5 -10 10 -10 6 0 10 5 10 10 0 6 -4 10 -10 10 -5 0
-10 -4 -10 -10z"/>
<path d="M1303 1360 c15 -39 33 -70 40 -70 5 0 -2 17 -14 38 -26 43 -35 53
-26 32z"/>
<path d="M1576 1354 c-4 -9 -4 -19 -1 -22 2 -3 7 3 11 12 4 9 4 19 1 22 -2 3
-7 -3 -11 -12z"/>
<path d="M400 1335 c5 -14 7 -33 4 -42 -5 -15 -4 -16 5 -3 9 13 11 12 11 -3 0
-10 4 -16 8 -13 15 9 1 62 -19 74 -17 11 -18 10 -9 -13z"/>
<path d="M1853 1345 c-18 -20 -16 -36 2 -28 9 3 13 8 11 11 -3 3 -1 11 5 19
15 18 -3 16 -18 -2z"/>
<path d="M2830 1350 c8 -5 22 -10 30 -10 13 0 13 1 0 10 -8 5 -22 10 -30 10
-13 0 -13 -1 0 -10z"/>
<path d="M2880 1339 c0 -5 5 -7 10 -4 6 3 10 8 10 11 0 2 -4 4 -10 4 -5 0 -10
-5 -10 -11z"/>
<path d="M477 1324 c4 -12 3 -15 -6 -10 -8 5 -11 3 -10 -5 1 -8 -1 -22 -6 -32
-4 -10 -5 -21 -1 -24 3 -3 11 8 17 25 7 20 18 32 29 32 21 0 37 16 17 17 -7 0
-20 4 -30 8 -14 6 -16 4 -10 -11z"/>
<path d="M1135 1330 c-3 -5 1 -10 9 -10 9 0 16 5 16 10 0 6 -4 10 -9 10 -6 0
-13 -4 -16 -10z"/>
<path d="M1807 1321 c-4 -17 -3 -21 5 -13 5 5 8 16 6 23 -3 8 -7 3 -11 -10z"/>
<path d="M2130 1331 c0 -6 5 -13 10 -16 15 -9 12 -55 -5 -72 -9 -8 -19 -13
-22 -9 -3 3 -12 1 -20 -6 -10 -8 -19 -6 -36 9 -24 22 -67 36 -67 22 0 -5 8 -9
18 -9 23 0 66 -45 57 -59 -3 -6 -1 -11 5 -11 6 0 -2 -12 -19 -26 -17 -14 -31
-33 -31 -42 0 -21 -52 -52 -86 -52 -14 0 -24 6 -24 14 0 8 -6 16 -14 19 -8 3
-16 18 -18 32 -2 22 -11 30 -46 42 -24 8 -48 13 -54 11 -6 -2 11 -11 37 -20
27 -8 50 -19 52 -24 5 -17 -14 -35 -38 -36 -54 -3 -100 2 -94 12 8 13 -1 13
-27 -1 -17 -9 -25 -6 -47 15 -15 14 -34 26 -42 26 -7 0 -50 -18 -93 -40 -43
-22 -85 -40 -93 -40 -7 0 -18 11 -23 25 -5 14 -15 25 -21 25 -9 0 -9 -3 0 -14
9 -11 8 -15 -6 -21 -16 -7 -15 -9 6 -14 13 -4 25 -13 26 -21 11 -68 12 -64
-29 -67 -21 -2 -44 2 -52 8 -11 9 -15 8 -20 -4 -7 -18 2 -37 17 -37 6 0 8 4 5
8 -3 5 11 8 30 7 48 -3 71 -27 71 -75 0 -21 6 -46 12 -54 15 -18 6 -37 -14
-29 -8 3 -15 1 -15 -3 0 -5 -25 -22 -55 -38 -48 -27 -54 -33 -49 -55 4 -15 14
-33 23 -41 9 -8 20 -23 24 -33 3 -9 11 -16 16 -15 14 5 10 -15 -9 -40 -20 -24
-36 -28 -42 -10 -6 16 -28 0 -28 -20 0 -15 2 -15 10 -2 6 9 10 10 10 3 0 -19
-59 -44 -80 -33 -13 7 -20 6 -22 -2 -3 -8 -13 -7 -36 5 -18 8 -32 11 -32 6 0
-5 5 -9 10 -9 18 0 11 -29 -10 -42 -11 -7 -20 -16 -20 -20 0 -13 28 -9 32 4 3
7 14 9 31 4 25 -6 26 -8 12 -22 -8 -8 -20 -12 -26 -8 -7 4 -18 -1 -26 -12 -14
-18 -15 -18 -28 -1 -13 18 -14 18 -27 -2 -17 -27 -58 -28 -65 -1 -3 11 -9 20
-15 20 -5 0 -4 -8 2 -19 14 -27 13 -44 -2 -35 -7 4 -5 -2 5 -13 18 -20 17 -22
-8 -47 -14 -14 -32 -23 -40 -20 -8 4 -15 2 -15 -4 0 -12 29 -24 41 -16 5 3 9
12 9 19 0 8 6 12 14 9 11 -4 12 -13 6 -35 -5 -18 -5 -27 1 -24 5 4 16 2 25 -3
14 -8 11 -14 -17 -41 -23 -21 -41 -30 -54 -27 -11 3 -41 10 -67 17 -43 11 -50
10 -68 -6 -12 -11 -19 -27 -17 -37 4 -14 -1 -18 -24 -18 -17 0 -43 7 -59 15
-17 9 -40 13 -53 9 -14 -3 -41 2 -62 10 -32 14 -36 18 -25 31 32 38 56 111 52
153 -3 34 0 46 14 57 11 8 15 15 10 15 -5 0 -18 -7 -28 -17 -11 -10 -18 -12
-18 -4 0 6 11 17 25 23 14 6 25 15 25 20 0 16 -21 8 -46 -17 -21 -21 -25 -34
-23 -70 2 -25 -2 -50 -9 -57 -7 -7 -12 -21 -12 -32 -1 -29 -20 -52 -53 -60
-15 -3 -27 -11 -27 -17 0 -5 -16 -26 -36 -46 -30 -30 -35 -40 -30 -66 3 -16 6
-40 6 -53 0 -18 5 -24 23 -24 21 0 25 8 41 74 10 41 24 80 32 86 16 14 60 6
80 -15 10 -9 24 -11 49 -5 25 6 39 4 48 -5 35 -35 117 -29 117 8 0 36 30 48
76 32 58 -21 86 -18 120 14 42 38 49 59 21 63 -14 2 -22 10 -22 23 0 11 -3 25
-8 32 -4 7 0 16 10 22 14 8 16 12 6 22 -19 19 -16 32 7 26 11 -3 27 1 34 9 19
18 32 18 40 -1 3 -8 10 -15 16 -15 6 0 9 4 6 9 -8 13 21 34 39 27 8 -3 15 -1
15 5 0 16 24 36 37 32 6 -2 14 1 18 6 9 15 34 14 51 -3 11 -11 11 -16 1 -19
-6 -3 5 -3 26 0 35 5 37 4 37 -20 0 -14 5 -29 11 -33 8 -5 10 1 7 20 -5 25 -3
27 19 21 13 -3 29 -2 36 2 7 4 27 13 45 19 34 12 44 1 13 -15 -20 -11 -36 -51
-20 -51 5 0 9 -4 9 -10 0 -5 -7 -7 -15 -4 -8 3 -42 7 -75 7 -48 2 -60 -1 -60
-13 0 -18 41 -22 52 -6 5 7 8 7 8 1 0 -6 28 -12 63 -13 34 -2 76 -5 92 -8 17
-3 42 -5 57 -5 15 0 30 -4 33 -9 4 -6 13 -10 21 -10 8 0 13 4 10 9 -4 5 -1 11
6 13 9 3 8 9 -5 22 -23 23 -22 29 9 43 24 11 29 9 63 -26 20 -21 36 -42 34
-48 -2 -6 3 -13 11 -16 21 -8 10 18 -26 65 l-29 37 23 3 c16 2 30 18 48 55 33
69 57 85 112 77 24 -4 46 -12 50 -18 5 -8 11 -7 20 2 6 6 19 12 27 12 8 0 23
7 33 16 14 14 20 14 33 4 9 -7 15 -8 15 -2 0 6 -6 13 -12 15 -7 3 -3 6 9 6 12
1 42 -8 67 -19 25 -10 46 -16 46 -11 0 12 -81 45 -105 43 -11 -1 -43 -14 -72
-28 -49 -24 -81 -25 -67 -2 4 6 -2 6 -15 -1 -15 -9 -27 -9 -41 -1 -11 6 -24 9
-29 6 -4 -3 -16 1 -26 8 -18 13 -18 15 -2 39 21 32 21 37 2 37 -9 0 -26 6 -38
14 -16 11 -32 12 -57 6 l-35 -8 43 -1 c33 -1 42 -5 42 -18 0 -14 -2 -15 -9 -4
-5 7 -14 10 -20 7 -22 -14 -10 -26 24 -26 33 0 35 -2 25 -20 -6 -11 -15 -18
-19 -15 -5 3 -12 -2 -15 -11 -5 -12 0 -15 26 -12 19 2 33 -2 35 -9 3 -7 -3
-13 -11 -13 -10 0 -27 -22 -43 -54 -26 -53 -59 -81 -86 -70 -7 2 -30 -2 -50
-11 -51 -21 -67 -19 -105 15 -31 29 -32 32 -22 70 12 43 13 44 78 40 33 -1 42
2 42 14 0 14 37 23 73 17 4 0 7 5 7 11 0 9 3 9 9 -1 11 -17 41 -7 41 13 0 11
-13 14 -52 13 -29 -1 -56 -6 -60 -12 -5 -6 -8 -5 -8 3 0 6 -5 12 -10 12 -6 0
-10 -6 -9 -12 5 -38 -2 -48 -29 -48 -33 0 -67 32 -58 55 4 11 -2 17 -24 22
-17 3 -30 9 -30 13 0 11 44 6 58 -8 8 -7 19 -9 25 -5 6 3 29 6 52 4 32 -1 42
2 42 14 0 8 -4 15 -9 15 -5 0 -6 5 -3 11 4 6 14 8 22 4 13 -5 14 -3 3 10 -9
10 -16 12 -20 5 -4 -6 -15 0 -28 15 -12 14 -29 25 -37 25 -8 0 -15 7 -15 15 0
8 -6 12 -14 9 -8 -3 -17 0 -22 7 -5 9 -10 7 -15 -7 -7 -18 -8 -18 -14 3 -4 12
-20 26 -36 32 -16 5 -32 18 -35 28 -3 10 -10 27 -14 38 -8 18 -9 29 -11 77 0
9 -7 19 -15 22 -8 3 -14 10 -14 16 0 6 5 8 11 4 7 -4 9 9 5 44 -5 50 -5 51 27
57 18 4 48 17 67 30 66 45 120 53 120 20 0 -23 17 -27 132 -30 122 -3 117 0
138 -78 12 -45 12 -49 -10 -72 -18 -20 -21 -28 -12 -37 7 -7 12 -27 12 -44 0
-18 4 -35 9 -38 18 -12 19 -56 1 -66 -18 -10 -60 -70 -60 -86 0 -4 14 10 30
33 17 23 37 43 45 46 16 7 15 42 -3 75 -11 18 -10 22 1 22 8 0 21 7 28 16 11
13 26 15 72 11 32 -3 64 -11 72 -17 8 -7 36 -14 62 -15 27 -2 50 -4 53 -5 3
-1 16 -3 30 -3 20 -2 25 -7 25 -29 0 -37 15 -48 16 -12 5 97 4 96 51 99 18 0
46 7 62 13 42 18 75 -5 72 -50 -1 -28 3 -34 24 -37 27 -3 42 -19 35 -38 -7
-20 23 -35 71 -37 30 -2 51 -8 59 -19 7 -10 19 -14 33 -10 13 3 22 1 22 -6 0
-6 8 -11 18 -11 9 0 26 -8 37 -16 18 -13 18 -17 5 -27 -11 -8 -15 -25 -12 -54
2 -40 1 -43 -23 -43 -14 0 -25 -4 -25 -10 0 -5 -7 -10 -15 -10 -9 0 -15 -9
-15 -25 0 -17 -6 -25 -17 -25 -10 0 -27 -7 -37 -15 -11 -8 -32 -15 -48 -15
-15 0 -28 -5 -28 -11 0 -8 -5 -7 -15 1 -13 11 -14 10 -9 -4 4 -11 1 -16 -11
-16 -9 0 -13 -5 -10 -11 5 -7 14 -6 28 4 12 7 43 21 69 29 l46 16 5 -26 c7
-39 -20 -68 -60 -64 -18 2 -33 0 -33 -5 0 -4 20 -9 45 -9 40 -1 46 1 51 22 6
22 15 28 39 25 6 -1 0 7 -12 18 -27 22 -29 31 -8 31 8 0 15 4 15 9 0 5 11 12
25 15 14 4 23 11 20 16 -4 7 -13 6 -26 0 -14 -8 -19 -7 -19 2 0 19 36 48 59
48 23 0 33 24 27 68 -2 18 1 32 5 32 5 0 9 10 9 23 0 19 -10 27 -52 42 -29 11
-58 18 -65 17 -6 -1 -14 7 -18 18 -5 15 -12 19 -23 14 -10 -4 -26 -6 -37 -6
-11 1 -28 2 -37 3 -13 0 -18 9 -18 30 0 25 -5 30 -31 36 -23 4 -30 11 -28 27
1 11 -4 33 -11 48 -11 24 -18 27 -56 26 -27 -2 -46 -8 -49 -16 -4 -11 -8 -12
-20 -2 -8 7 -13 16 -10 20 3 5 1 20 -5 35 -9 24 -8 26 9 20 19 -6 61 13 61 26
0 4 -20 28 -45 55 -25 26 -45 53 -45 61 0 7 -5 13 -11 13 -6 0 -7 5 -2 13 10
17 4 59 -12 76 -7 7 -25 14 -39 14 -14 0 -26 3 -26 7 0 4 -16 11 -35 14 -20 4
-33 11 -30 16 3 5 -1 23 -10 40 -16 30 -25 38 -25 21z m73 -93 c9 0 17 -6 17
-13 0 -11 8 -13 28 -9 38 8 56 -15 49 -61 -3 -19 -2 -35 3 -35 5 0 12 -11 16
-24 3 -14 12 -27 21 -30 8 -3 11 -10 8 -16 -3 -6 2 -13 12 -17 25 -9 34 -25
21 -40 -8 -10 -14 -11 -25 -2 -23 20 -35 -3 -25 -48 9 -37 7 -40 -19 -56 -16
-9 -29 -22 -29 -29 0 -9 -11 -14 -30 -13 -16 0 -30 3 -30 6 0 3 -21 5 -47 4
-26 -1 -60 5 -75 13 -36 17 -140 21 -146 4 -2 -7 -11 -12 -19 -12 -9 0 -13 6
-10 14 3 7 0 19 -6 25 -8 8 -6 16 8 31 18 19 18 58 0 103 -6 15 -4 17 18 12
18 -5 30 -1 44 14 12 13 26 19 36 15 12 -4 14 -1 10 15 -3 14 4 30 24 50 17
17 29 39 29 53 -1 17 5 24 24 26 14 2 29 11 33 19 6 9 15 12 25 7 10 -3 25 -6
35 -6z m-718 -463 c11 -5 30 -20 41 -34 18 -21 24 -23 37 -13 12 10 18 10 28
0 8 -7 27 -19 42 -26 l28 -12 -32 -35 c-37 -41 -37 -41 -35 -17 1 12 -6 17
-26 17 -14 0 -30 3 -34 8 -14 13 -24 7 -24 -14 0 -21 0 -21 -20 2 -16 20 -19
21 -20 7 0 -10 -5 -18 -11 -18 -5 0 -8 3 -6 8 3 4 -7 8 -21 8 -69 4 -86 13
-95 54 -5 22 0 28 45 51 51 26 67 28 103 14z m-88 -131 c-3 -3 -12 -4 -19 -1
-8 3 -5 6 6 6 11 1 17 -2 13 -5z m263 -4 c-8 -5 -19 -10 -25 -10 -5 0 -3 5 5
10 8 5 20 10 25 10 6 0 3 -5 -5 -10z m-212 -18 c2 -7 -6 -12 -17 -12 -12 0
-21 6 -21 14 0 17 32 15 38 -2z m85 -10 c15 -2 26 -9 24 -16 -2 -6 0 -19 5
-28 6 -13 3 -23 -12 -38 -11 -11 -20 -25 -20 -32 0 -20 -32 -48 -56 -48 -13 0
-25 -4 -28 -9 -4 -5 -20 -6 -39 -1 -17 4 -44 11 -59 14 -16 4 -28 12 -28 20 0
14 -46 11 -67 -6 -7 -6 -14 -5 -18 2 -4 6 -13 9 -20 6 -15 -5 -42 21 -32 31 4
3 13 0 21 -6 10 -9 16 -9 21 -1 4 6 15 8 25 5 10 -3 34 3 53 14 19 11 38 17
41 14 3 -3 13 0 23 8 9 8 14 9 10 2 -5 -8 2 -11 23 -11 16 1 30 5 30 11 0 6 5
6 13 0 6 -5 31 -11 55 -12 33 -2 42 1 42 13 0 18 -1 19 -97 16 -40 0 -73 3
-73 7 0 15 37 32 58 26 14 -3 24 2 32 17 8 15 17 19 28 14 9 -4 30 -9 45 -12z
m45 -213 c24 -22 42 -29 59 -26 28 5 53 -27 34 -46 -8 -8 -11 -8 -11 1 0 7
-15 12 -38 12 -21 0 -47 7 -58 15 -22 17 -38 20 -29 5 3 -5 2 -10 -3 -10 -5 0
-15 12 -23 26 -12 23 -12 27 6 40 25 18 22 19 63 -17z m-928 -54 c0 -8 -2 -15
-4 -15 -2 0 -6 7 -10 15 -3 8 -1 15 4 15 6 0 10 -7 10 -15z m0 -35 c0 -5 -4
-10 -10 -10 -5 0 -10 5 -10 10 0 6 5 10 10 10 6 0 10 -4 10 -10z m-20 -30 c0
-5 -5 -10 -11 -10 -5 0 -7 5 -4 10 3 6 8 10 11 10 2 0 4 -4 4 -10z m-24 -55
c-9 -14 -27 -30 -40 -35 -13 -5 -26 -16 -29 -24 -4 -9 -11 -16 -16 -16 -23 0
13 49 39 55 16 4 32 17 39 32 6 14 14 23 18 20 3 -4 -2 -18 -11 -32z m-116
-95 c0 -5 -5 -10 -11 -10 -5 0 -7 5 -4 10 3 6 8 10 11 10 2 0 4 -4 4 -10z m22
-46 c-8 -39 -8 -39 -16 -11 -4 17 -2 34 3 41 6 7 9 15 7 18 -1 3 1 2 6 -1 5
-4 5 -25 0 -47z m-23 -36 c1 -16 -3 -28 -9 -28 -5 0 -10 21 -9 48 0 35 3 42 9
27 5 -11 9 -32 9 -47z"/>
<path d="M2170 1175 c-7 -9 -11 -18 -8 -20 9 -10 38 7 38 21 0 18 -14 18 -30
-1z"/>
<path d="M2230 1180 c0 -5 5 -10 11 -10 5 0 7 5 4 10 -3 6 -8 10 -11 10 -2 0
-4 -4 -4 -10z"/>
<path d="M2220 1141 c0 -5 5 -13 10 -16 6 -3 10 -2 10 4 0 5 -4 13 -10 16 -5
3 -10 2 -10 -4z"/>
<path d="M2010 1026 c0 -21 5 -23 43 -23 23 0 45 5 49 11 6 8 8 7 8 -1 0 -7 9
-13 20 -13 13 0 20 7 20 20 0 22 -15 27 -23 8 -4 -10 -6 -10 -6 0 -1 17 -31
15 -31 -3 0 -8 -4 -15 -10 -15 -5 0 -7 7 -4 15 4 8 2 15 -4 15 -5 0 -15 -7
-22 -15 -7 -8 -18 -15 -24 -15 -7 0 -7 3 -1 8 16 12 16 32 0 32 -9 0 -15 -9
-15 -24z"/>
<path d="M2160 1013 c0 -27 3 -28 24 -7 15 14 16 14 16 -3 1 -17 2 -17 15 1 8
11 15 14 15 8 0 -7 4 -12 8 -12 4 0 8 8 8 18 0 15 -8 18 -43 18 -38 0 -43 -2
-43 -23z"/>
<path d="M2260 1020 c0 -11 6 -20 14 -20 24 0 28 18 6 30 -17 9 -20 8 -20 -10z"/>
<path d="M2047 973 c-4 -3 -7 -15 -7 -25 0 -14 7 -18 33 -16 17 1 35 7 39 13
5 6 8 6 8 -2 0 -8 13 -13 29 -13 16 0 32 6 35 13 5 10 7 10 12 0 3 -7 19 -13
35 -13 22 0 29 5 29 20 0 24 -13 26 -33 5 -13 -12 -16 -12 -20 0 -7 17 -55 13
-69 -6 -7 -11 -9 -8 -5 9 3 12 1 22 -4 22 -5 0 -9 -5 -9 -12 0 -6 -3 -8 -7 -5
-3 4 -12 2 -18 -3 -9 -8 -14 -6 -19 5 -6 16 -18 19 -29 8z"/>
<path d="M1369 720 c-5 -30 -2 -35 24 -35 15 -1 27 4 27 10 0 6 3 7 8 0 4 -5
22 -11 40 -11 28 -2 32 1 32 25 -1 24 -2 25 -14 8 -14 -18 -15 -18 -25 0 -8
14 -10 14 -11 3 0 -10 -11 -15 -38 -16 -20 0 -31 1 -24 4 6 2 10 8 6 13 -7 12
-24 12 -25 -1z"/>
<path d="M1520 704 c0 -17 28 -25 34 -11 2 7 5 4 5 -7 1 -15 3 -16 16 -6 9 7
14 18 12 23 -4 14 -67 15 -67 1z"/>
<path d="M1461 514 c0 -7 -11 -12 -23 -11 -13 0 -35 -3 -50 -6 -16 -3 -28 -1
-28 4 0 6 -4 7 -10 4 -5 -3 -10 -12 -10 -19 0 -16 102 -18 112 -2 5 7 8 7 8 1
0 -6 9 -11 20 -12 12 -1 20 4 20 14 0 9 -6 13 -14 10 -9 -4 -17 1 -19 11 -3 9
-5 12 -6 6z"/>
<path d="M2573 1326 c2 -15 11 -19 43 -20 29 -1 40 3 41 14 2 17 -41 21 -64 7
-6 -4 -14 -1 -17 5 -3 7 -5 4 -3 -6z"/>
<path d="M2700 1322 c0 -14 7 -19 25 -19 25 0 34 20 15 32 -5 3 -10 1 -10 -6
0 -8 -4 -8 -15 1 -12 10 -15 9 -15 -8z"/>
<path d="M379 1329 c0 -2 -2 -13 -3 -25 -1 -12 -14 -34 -29 -50 -15 -16 -27
-36 -26 -44 0 -8 5 -4 12 10 l11 25 4 -27 c4 -35 22 -37 22 -3 0 14 -5 25 -11
25 -6 0 -3 7 5 16 18 17 32 62 22 71 -3 4 -6 4 -7 2z"/>
<path d="M1960 1325 c-1 -5 -1 -20 0 -32 1 -21 -2 -22 -32 -16 -18 3 -39 10
-45 16 -9 6 -13 6 -13 -3 0 -8 -8 -10 -22 -7 -12 4 -34 -1 -50 -11 -21 -12
-28 -23 -27 -47 1 -21 3 -24 6 -10 11 46 33 57 108 54 81 -4 135 7 135 26 0
21 -19 28 -26 11 -9 -23 -22 -20 -27 7 -2 12 -5 18 -7 12z"/>
<path d="M2670 1320 c0 -5 5 -10 10 -10 6 0 10 5 10 10 0 6 -4 10 -10 10 -5 0
-10 -4 -10 -10z"/>
<path d="M1551 1288 c-10 -30 -9 -31 4 -14 8 11 15 26 15 33 0 22 -8 14 -19
-19z"/>
<path d="M1920 1310 c0 -5 5 -10 10 -10 6 0 10 5 10 10 0 6 -4 10 -10 10 -5 0
-10 -4 -10 -10z"/>
<path d="M2031 1298 c0 -21 1 -21 8 -4 7 19 8 19 15 1 6 -16 9 -17 16 -5 7 10
10 11 10 3 0 -7 11 -13 25 -13 25 0 35 23 15 35 -5 3 -10 2 -10 -2 0 -10 -47
-10 -57 0 -13 14 -23 7 -22 -15z"/>
<path d="M2927 1313 c-4 -3 -7 -11 -7 -17 0 -6 5 -5 12 2 6 6 9 14 7 17 -3 3
-9 2 -12 -2z"/>
<path d="M2980 1313 c0 -5 5 -15 10 -23 8 -12 10 -11 10 8 0 12 -4 22 -10 22
-5 0 -10 -3 -10 -7z"/>
<path d="M344 1302 c3 -5 0 -13 -6 -15 -9 -4 -10 -6 -1 -6 17 -1 25 16 12 25
-7 4 -9 3 -5 -4z"/>
<path d="M740 1288 c0 -19 2 -20 10 -8 13 19 13 30 0 30 -5 0 -10 -10 -10 -22z"/>
<path d="M766 1294 c-3 -8 -6 -17 -6 -18 0 -8 50 -3 56 5 4 8 9 7 16 -2 7 -11
11 -11 15 -1 2 6 9 9 15 6 6 -4 8 -1 6 7 -3 8 -14 13 -24 11 -10 -1 -27 -3
-36 -4 -9 -1 -14 -7 -12 -13 3 -5 -1 -2 -9 8 -13 16 -15 16 -21 1z"/>
<path d="M1147 1297 c-4 -11 1 -21 16 -28 19 -10 20 -10 11 2 -6 8 -13 21 -16
28 -3 12 -6 12 -11 -2z"/>
<path d="M1185 1300 c3 -5 8 -10 11 -10 2 0 4 5 4 10 0 6 -5 10 -11 10 -5 0
-7 -4 -4 -10z"/>
<path d="M1526 1295 c-3 -9 -6 -24 -5 -33 0 -9 5 -4 10 12 9 32 6 48 -5 21z"/>
<path d="M903 1288 c-14 -7 -37 -47 -67 -117 -54 -126 -96 -237 -96 -252 0
-25 18 5 30 48 12 44 31 81 30 58 -1 -16 -49 -151 -50 -139 0 7 -11 11 -24 10
-13 0 -22 -5 -19 -11 2 -5 -3 -1 -11 9 -15 18 -21 15 -17 -8 1 -5 -4 -5 -11 1
-16 13 -49 13 -65 0 -9 -7 -13 -5 -13 7 0 9 -5 16 -11 16 -6 0 -9 -10 -7 -22
2 -16 9 -22 23 -21 11 2 49 4 85 4 67 2 73 -3 49 -41 -7 -11 -8 -8 -3 10 13
51 -19 2 -44 -67 -62 -173 -168 -540 -158 -550 4 -4 21 50 57 180 6 22 13 37
15 34 3 -3 -7 -49 -21 -102 -14 -54 -24 -100 -21 -102 3 -3 10 15 16 38 15 63
37 138 77 264 19 61 39 124 44 142 7 20 18 33 34 37 20 5 25 12 24 39 l-1 32
-9 -32 c-5 -18 -14 -33 -20 -33 -6 0 -9 6 -6 14 3 8 24 67 48 132 48 137 120
317 155 387 24 49 23 52 -13 35z m-6 -42 c-7 -14 -13 -23 -15 -21 -7 6 9 45
18 45 4 0 3 -11 -3 -24z m-67 -161 c-11 -26 -23 -45 -26 -42 -3 3 5 29 17 58
13 29 24 48 26 42 2 -5 -6 -31 -17 -58z m-115 -302 c-3 -15 -15 -45 -24 -68
-10 -22 -21 -47 -25 -55 -15 -35 6 45 25 95 21 58 36 74 24 28z m-69 -199 c-8
-21 -15 -33 -15 -25 -1 19 23 85 26 74 2 -5 -3 -27 -11 -49z m-39 -126 c-3 -8
-6 -5 -6 6 -1 11 2 17 5 13 3 -3 4 -12 1 -19z"/>
<path d="M947 1293 c-12 -11 -8 -23 8 -23 8 0 15 7 15 15 0 16 -12 20 -23 8z"/>
<path d="M2560 1273 c0 -18 7 -20 58 -21 39 0 59 4 59 12 0 7 -17 11 -46 10
-25 0 -52 3 -58 9 -10 7 -13 4 -13 -10z"/>
<path d="M2950 1274 c0 -8 5 -12 10 -9 6 3 10 10 10 16 0 5 -4 9 -10 9 -5 0
-10 -7 -10 -16z"/>
<path d="M2694 1268 c-10 -15 5 -25 31 -20 37 7 39 19 4 24 -16 3 -32 1 -35
-4z"/>
<path d="M1285 1248 c-22 -13 -113 -14 -157 -3 -23 6 -28 4 -28 -12 0 -18 8
-20 83 -21 77 -2 86 0 107 23 26 28 25 30 -5 13z"/>
<path d="M1440 1242 c-16 -18 -21 -62 -7 -62 4 0 5 -5 1 -12 -4 -6 -3 -8 4 -5
5 4 8 16 5 26 -7 27 13 59 39 64 22 4 21 4 -2 5 -14 1 -32 -6 -40 -16z"/>
<path d="M2975 1250 c-3 -5 1 -10 9 -10 9 0 16 5 16 10 0 6 -4 10 -9 10 -6 0
-13 -4 -16 -10z"/>
<path d="M402 1229 c-23 -21 -29 -49 -11 -49 6 0 8 -7 4 -17 -5 -14 -4 -15 6
-6 7 7 12 26 12 42 0 20 6 31 16 33 10 2 12 6 5 10 -6 4 -21 -2 -32 -13z m3
-29 c3 -5 1 -10 -4 -10 -6 0 -11 5 -11 10 0 6 2 10 4 10 3 0 8 -4 11 -10z"/>
<path d="M1313 1225 c-18 -20 -16 -32 7 -38 24 -6 38 12 19 24 -11 7 -11 9 -1
9 7 0 10 5 7 10 -8 13 -18 12 -32 -5z"/>
<path d="M1955 1230 c3 -5 10 -10 16 -10 5 0 9 5 9 10 0 6 -7 10 -16 10 -8 0
-12 -4 -9 -10z"/>
<path d="M2644 1229 c-10 -17 13 -36 27 -22 12 12 4 33 -11 33 -5 0 -12 -5
-16 -11z"/>
<path d="M1880 1220 c0 -5 5 -10 10 -10 6 0 10 5 10 10 0 6 -4 10 -10 10 -5 0
-10 -4 -10 -10z"/>
<path d="M517 1212 c8 -5 9 -13 3 -22 -6 -8 -10 -10 -10 -4 0 7 -11 14 -24 16
-19 4 -26 0 -29 -16 -4 -20 -4 -20 -6 2 -1 27 -21 30 -21 3 0 -25 17 -36 34
-21 11 8 15 8 19 -2 3 -8 6 -5 7 7 1 18 2 19 9 2 6 -17 8 -17 31 3 20 18 22
23 10 30 -8 6 -19 10 -25 10 -5 0 -5 -4 2 -8z"/>
<path d="M602 1204 c-7 -8 -18 -12 -23 -8 -10 6 -39 -13 -39 -25 0 -4 9 -7 20
-8 11 -1 18 2 15 8 -4 5 -1 9 4 9 6 0 11 -4 11 -10 0 -5 7 -10 15 -10 10 0 15
10 15 30 0 34 0 35 -18 14z"/>
<path d="M1850 1199 c0 -5 5 -7 10 -4 6 3 10 8 10 11 0 2 -4 4 -10 4 -5 0 -10
-5 -10 -11z"/>
<path d="M1905 1200 c-3 -6 1 -7 9 -4 18 7 21 14 7 14 -6 0 -13 -4 -16 -10z"/>
<path d="M243 1180 c-13 -5 -23 -11 -23 -13 0 -8 50 5 56 14 6 11 -4 11 -33
-1z"/>
<path d="M294 1181 c7 -11 -50 -71 -67 -71 -20 0 -31 -16 -17 -25 5 -3 10 -1
10 5 0 6 13 1 30 -11 24 -18 32 -20 45 -9 10 8 15 9 15 1 0 -6 7 -11 15 -11
13 0 11 5 -5 22 -17 18 -23 20 -29 9 -5 -8 -16 -11 -26 -8 -14 6 -13 11 11 42
15 20 33 39 42 44 11 6 10 9 -7 14 -12 3 -19 2 -17 -2z"/>
<path d="M1100 1171 c0 -15 6 -19 30 -19 17 1 33 5 37 11 3 5 10 3 15 -4 7
-11 11 -11 15 -2 3 8 11 10 21 5 10 -5 32 -3 52 4 30 11 34 21 5 14 -19 -4
-120 0 -147 6 -23 5 -28 2 -28 -15z"/>
<path d="M1390 1180 c0 -5 5 -10 10 -10 6 0 10 5 10 10 0 6 -4 10 -10 10 -5 0
-10 -4 -10 -10z"/>
<path d="M356 1150 c10 -16 19 -28 21 -26 6 6 -20 56 -29 56 -5 0 -1 -13 8
-30z"/>
<path d="M1465 1170 c3 -5 8 -10 11 -10 2 0 4 5 4 10 0 6 -5 10 -11 10 -5 0
-7 -4 -4 -10z"/>
<path d="M1310 1161 c0 -5 5 -13 10 -16 6 -3 10 -2 10 4 0 5 -4 13 -10 16 -5
3 -10 2 -10 -4z"/>
<path d="M2530 1160 c0 -5 5 -10 11 -10 5 0 7 5 4 10 -3 6 -8 10 -11 10 -2 0
-4 -4 -4 -10z"/>
<path d="M1254 1146 c-10 -26 4 -48 28 -44 17 2 23 10 23 28 0 18 -6 26 -23
28 -13 2 -25 -3 -28 -12z m39 -22 c-4 -13 -26 -11 -30 3 -2 6 4 10 14 9 10 -2
17 -7 16 -12z"/>
<path d="M1731 1156 c12 -10 59 -15 59 -6 0 5 -14 10 -32 10 -17 0 -29 -2 -27
-4z"/>
<path d="M2650 1140 c6 -11 15 -20 20 -20 17 0 11 15 -11 28 -19 12 -19 11 -9
-8z"/>
<path d="M205 1140 c-3 -5 -1 -10 4 -10 6 0 11 5 11 10 0 6 -2 10 -4 10 -3 0
-8 -4 -11 -10z"/>
<path d="M1448 1143 c6 -2 18 -2 25 0 6 3 1 5 -13 5 -14 0 -19 -2 -12 -5z"/>
<path d="M2942 1124 c-21 -22 -22 -26 -8 -40 15 -14 16 -13 16 7 0 12 7 31 17
41 25 27 1 20 -25 -8z"/>
<path d="M400 1111 c0 -24 1 -24 15 -5 18 24 19 31 0 31 -9 0 -15 -10 -15 -26z"/>
<path d="M441 1122 c-1 -13 -5 -20 -11 -17 -5 3 -10 1 -10 -4 0 -17 50 -8 51
9 0 10 3 9 8 -4 5 -14 10 -16 15 -8 4 7 13 12 19 12 7 0 6 -4 -3 -10 -8 -5
-11 -12 -7 -16 4 -4 15 0 25 9 15 15 15 19 2 27 -8 5 -29 8 -47 6 -18 -1 -35
2 -37 8 -2 6 -5 1 -5 -12z"/>
<path d="M550 1140 c-10 -30 -4 -47 15 -47 14 0 21 6 21 18 0 11 -6 17 -12 15
-7 -3 -15 0 -18 7 -2 7 -5 10 -6 7z"/>
<path d="M1148 1133 c7 -3 16 -2 19 1 4 3 -2 6 -13 5 -11 0 -14 -3 -6 -6z"/>
<path d="M1193 1129 c9 -6 14 -15 11 -21 -5 -7 -1 -9 9 -5 21 8 24 -22 5 -42
-11 -11 -8 -12 12 -6 22 7 23 6 11 -9 -9 -11 -10 -16 -2 -16 6 0 14 7 17 15 3
8 21 19 40 25 19 6 34 16 34 22 0 6 9 8 20 5 13 -3 20 0 20 8 0 25 -33 20 -64
-9 -17 -15 -32 -23 -34 -17 -2 6 -8 9 -13 5 -5 -3 -15 7 -22 23 -8 19 -20 29
-37 30 -22 2 -23 1 -7 -8z"/>
<path d="M2615 1130 c3 -5 8 -10 11 -10 2 0 4 5 4 10 0 6 -5 10 -11 10 -5 0
-7 -4 -4 -10z"/>
<path d="M331 1114 c0 -11 3 -14 6 -6 3 7 2 16 -1 19 -3 4 -6 -2 -5 -13z"/>
<path d="M594 1119 c-3 -6 -1 -16 5 -22 8 -8 11 -7 11 4 0 12 2 12 10 -1 9
-13 10 -13 10 0 0 13 1 13 10 0 11 -18 25 -7 17 15 -7 17 -52 21 -63 4z"/>
<path d="M1905 1120 c3 -5 8 -10 11 -10 2 0 4 5 4 10 0 6 -5 10 -11 10 -5 0
-7 -4 -4 -10z"/>
<path d="M2455 1120 c-3 -5 -1 -10 4 -10 6 0 11 5 11 10 0 6 -2 10 -4 10 -3 0
-8 -4 -11 -10z"/>
<path d="M2891 1114 c0 -11 3 -14 6 -6 3 7 2 16 -1 19 -3 4 -6 -2 -5 -13z"/>
<path d="M1120 1110 c0 -5 5 -10 11 -10 5 0 7 5 4 10 -3 6 -8 10 -11 10 -2 0
-4 -4 -4 -10z"/>
<path d="M2770 1110 c0 -5 5 -10 11 -10 5 0 7 5 4 10 -3 6 -8 10 -11 10 -2 0
-4 -4 -4 -10z"/>
<path d="M2836 1103 c-6 -14 -5 -15 5 -6 7 7 10 15 7 18 -3 3 -9 -2 -12 -12z"/>
<path d="M1950 1100 c0 -5 5 -10 10 -10 6 0 10 5 10 10 0 6 -4 10 -10 10 -5 0
-10 -4 -10 -10z"/>
<path d="M2675 1100 c-3 -6 1 -7 9 -4 18 7 21 14 7 14 -6 0 -13 -4 -16 -10z"/>
<path d="M135 1090 c-10 -17 5 -50 23 -50 16 1 15 2 0 11 -28 16 -23 42 7 37
14 -3 25 -1 25 3 0 12 -47 11 -55 -1z"/>
<path d="M2415 1090 c-3 -5 1 -10 10 -10 9 0 13 5 10 10 -3 6 -8 10 -10 10 -2
0 -7 -4 -10 -10z"/>
<path d="M660 1070 c0 -9 6 -22 13 -29 10 -11 8 -12 -12 -6 -16 5 -21 4 -17
-4 4 -6 13 -11 21 -11 18 0 31 -40 15 -50 -22 -14 5 -17 30 -4 14 8 20 14 14
14 -6 0 -23 24 -38 53 -14 28 -26 45 -26 37z"/>
<path d="M1115 1059 c-4 -13 -12 -18 -21 -15 -9 3 -31 -1 -51 -9 -19 -8 -44
-15 -54 -15 -10 0 -20 -4 -24 -9 -8 -13 62 -1 95 16 20 10 27 10 35 0 18 -22
37 -20 30 4 -6 18 -4 20 17 15 12 -3 17 -3 11 0 -7 3 -13 12 -13 20 0 21 -18
17 -25 -7z"/>
<path d="M2767 1073 c-10 -9 -9 -61 1 -67 4 -2 12 6 18 19 9 19 9 22 -3 18
-12 -5 -14 -1 -8 15 6 22 4 27 -8 15z"/>
<path d="M2901 1063 c-1 -23 22 -32 34 -13 3 6 0 10 -9 10 -8 0 -17 6 -19 13
-3 6 -6 2 -6 -10z"/>
<path d="M420 1060 c-13 -8 -12 -10 3 -10 9 0 17 5 17 10 0 12 -1 12 -20 0z"/>
<path d="M497 1040 c-10 -26 -16 -30 -42 -28 -25 2 -31 -1 -33 -19 -2 -13 1
-23 6 -23 6 0 8 9 5 20 -5 20 12 29 19 9 2 -7 12 -7 29 0 19 7 28 19 31 40 6
39 -1 40 -15 1z"/>
<path d="M1350 1041 c-7 -14 -7 -22 1 -27 12 -7 29 12 29 34 0 19 -18 14 -30
-7z"/>
<path d="M1710 1044 c0 -8 5 -12 10 -9 6 3 10 10 10 16 0 5 -4 9 -10 9 -5 0
-10 -7 -10 -16z"/>
<path d="M1780 1050 c0 -5 5 -10 11 -10 5 0 7 5 4 10 -3 6 -8 10 -11 10 -2 0
-4 -4 -4 -10z"/>
<path d="M345 985 c0 -35 3 -61 8 -58 4 2 7 28 7 58 0 30 -3 56 -7 58 -5 3 -8
-23 -8 -58z"/>
<path d="M1500 1039 c0 -5 5 -7 10 -4 6 3 10 8 10 11 0 2 -4 4 -10 4 -5 0 -10
-5 -10 -11z"/>
<path d="M1837 1031 c-4 -17 -3 -21 5 -13 5 5 8 16 6 23 -3 8 -7 3 -11 -10z"/>
<path d="M2516 1042 c-2 -4 4 -13 15 -20 22 -14 25 -7 5 14 -8 8 -17 11 -20 6z"/>
<path d="M1180 1024 c-11 -12 -10 -18 3 -31 13 -13 19 -14 31 -3 17 14 22 35
6 25 -5 -3 -10 1 -10 9 0 20 -14 20 -30 0z"/>
<path d="M127 1023 c-3 -5 -1 -17 4 -28 7 -17 8 -17 8 8 1 27 -4 34 -12 20z"/>
<path d="M200 1020 c0 -5 -5 -9 -12 -7 -6 1 -14 -6 -16 -15 -2 -10 2 -18 8
-18 6 0 8 5 5 10 -3 6 -1 10 4 10 6 0 11 -4 11 -10 0 -15 67 -12 73 3 4 10 6
10 6 0 2 -25 38 -14 44 12 3 17 0 24 -7 22 -6 -2 -10 -13 -8 -23 2 -15 1 -16
-7 -5 -10 15 -71 23 -71 9 0 -4 -5 -8 -11 -8 -6 0 -9 7 -5 15 3 8 1 15 -4 15
-6 0 -10 -4 -10 -10z"/>
<path d="M1640 1017 c0 -7 -9 -13 -20 -13 -11 0 -20 4 -20 8 0 4 -9 8 -20 8
-15 0 -20 -7 -20 -26 0 -23 2 -25 15 -14 13 11 13 15 3 21 -10 6 -10 9 -1 9 7
0 17 -9 23 -19 16 -31 50 -23 50 11 0 15 -2 28 -5 28 -3 0 -5 -6 -5 -13z"/>
<path d="M1691 1005 c-1 -28 2 -31 34 -33 25 -2 35 1 35 12 0 19 -23 33 -28
18 -6 -19 -22 -14 -32 11 -8 20 -9 20 -9 -8z"/>
<path d="M152 1000 c0 -14 2 -19 5 -12 2 6 2 18 0 25 -3 6 -5 1 -5 -13z"/>
<path d="M2420 1004 c0 -8 5 -12 10 -9 6 3 10 10 10 16 0 5 -4 9 -10 9 -5 0
-10 -7 -10 -16z"/>
<path d="M1660 990 c0 -11 5 -20 10 -20 6 0 10 9 10 20 0 11 -4 20 -10 20 -5
0 -10 -9 -10 -20z"/>
<path d="M1787 992 c3 -7 9 -10 12 -5 3 4 10 11 15 15 4 4 -1 6 -12 5 -12 -1
-18 -6 -15 -15z"/>
<path d="M2490 995 c0 -16 16 -20 24 -6 3 5 -1 11 -9 15 -9 3 -15 0 -15 -9z"/>
<path d="M1138 994 c-4 -3 -12 -7 -20 -8 -7 -2 -21 -6 -30 -11 -10 -4 -25 -5
-33 -1 -8 3 -15 1 -15 -4 0 -6 -4 -10 -10 -10 -5 0 -7 7 -4 15 4 8 1 15 -5 15
-6 0 -11 -4 -11 -10 0 -5 -28 -8 -65 -7 -48 2 -65 0 -65 -10 0 -7 10 -14 23
-14 12 -1 36 -2 52 -3 17 -1 38 2 47 6 9 5 19 5 22 0 7 -12 109 -6 134 7 20
10 21 14 8 26 -16 17 -20 18 -28 9z m-1 -30 c-3 -3 -12 -4 -19 -1 -8 3 -5 6 6
6 11 1 17 -2 13 -5z"/>
<path d="M1500 984 c0 -8 5 -12 10 -9 6 3 10 10 10 16 0 5 -4 9 -10 9 -5 0
-10 -7 -10 -16z"/>
<path d="M1232 975 c-10 -12 -10 -15 1 -15 8 0 20 7 27 15 17 21 -10 20 -28 0z"/>
<path d="M2871 985 c-9 -41 -9 -67 0 -58 6 6 9 23 6 39 -2 16 -5 25 -6 19z"/>
<path d="M488 968 c9 -9 15 -9 24 0 9 9 7 12 -12 12 -19 0 -21 -3 -12 -12z"/>
<path d="M181 956 c-22 -27 -9 -51 24 -47 17 1 33 7 36 13 3 5 9 1 13 -9 7
-17 8 -17 17 0 6 9 8 21 5 25 -7 11 -66 3 -66 -9 0 -5 -7 -9 -15 -9 -13 0 -14
4 -5 21 14 25 8 35 -9 15z"/>
<path d="M439 953 c-1 -4 0 -16 1 -26 1 -12 -9 -21 -30 -28 -41 -15 -39 -52 3
-57 15 -2 27 -7 27 -11 0 -4 -14 -26 -31 -49 -17 -23 -28 -42 -25 -42 8 0 39
33 52 56 6 10 23 19 37 19 25 1 62 23 52 33 -2 3 -12 -1 -20 -8 -11 -9 -19
-10 -27 -2 -6 6 -17 8 -24 5 -8 -3 -14 0 -14 6 0 7 -9 9 -25 5 -40 -10 -31 23
10 40 23 10 35 22 35 35 0 19 -19 41 -21 24z"/>
<path d="M1508 943 c7 -3 16 -2 19 1 4 3 -2 6 -13 5 -11 0 -14 -3 -6 -6z"/>
<path d="M1561 923 c0 -16 3 -22 6 -15 5 14 33 17 33 3 0 -4 23 -9 50 -10 41
0 50 2 51 17 0 14 2 14 7 2 4 -8 17 -16 30 -18 18 -3 22 2 22 22 0 26 -13 35
-24 17 -3 -5 -15 -7 -25 -4 -13 3 -21 -1 -24 -14 -4 -16 -5 -16 -6 0 -1 20
-17 23 -24 5 -3 -8 -6 -6 -6 5 -1 9 -6 17 -12 17 -5 0 -7 -5 -4 -10 7 -11 -30
-8 -41 3 -17 16 -34 6 -33 -20z"/>
<path d="M1815 940 c3 -5 11 -10 16 -10 6 0 7 5 4 10 -3 6 -11 10 -16 10 -6 0
-7 -4 -4 -10z"/>
<path d="M1360 924 c0 -9 7 -14 17 -12 25 5 28 28 4 28 -12 0 -21 -6 -21 -16z"/>
<path d="M932 921 c-8 -5 -27 -7 -43 -6 -36 3 -40 -21 -4 -27 14 -3 25 -2 25
1 0 8 99 5 107 -3 4 -3 2 -6 -3 -6 -20 0 -34 -17 -28 -33 9 -25 23 -20 17 6
-3 12 -2 19 2 14 10 -9 45 21 45 38 0 17 -31 28 -44 15 -13 -13 -53 -13 -58 0
-2 5 -9 6 -16 1z"/>
<path d="M1070 912 c0 -24 30 -38 42 -20 12 19 4 33 -20 36 -16 3 -22 -2 -22
-16z"/>
<path d="M135 910 c3 -5 8 -10 11 -10 2 0 4 5 4 10 0 6 -5 10 -11 10 -5 0 -7
-4 -4 -10z"/>
<path d="M288 893 c-10 -2 -18 -8 -18 -13 0 -4 -14 -13 -30 -20 -17 -7 -28
-15 -26 -18 3 -2 21 5 41 17 20 11 43 21 51 21 8 0 14 5 14 10 0 10 -3 11 -32
3z"/>
<path d="M110 880 c0 -5 7 -7 15 -4 8 4 15 8 15 10 0 2 -7 4 -15 4 -8 0 -15
-4 -15 -10z"/>
<path d="M860 870 c-8 -5 -12 -12 -9 -15 4 -3 12 1 19 10 14 17 11 19 -10 5z"/>
<path d="M1050 873 c0 -7 33 -32 42 -33 4 0 5 6 2 14 -5 13 -44 30 -44 19z"/>
<path d="M2750 869 c0 -5 5 -7 10 -4 6 3 10 8 10 11 0 2 -4 4 -10 4 -5 0 -10
-5 -10 -11z"/>
<path d="M132 862 c-9 -6 -5 -12 13 -20 31 -14 55 -15 55 -3 0 5 -10 7 -22 3
-14 -3 -19 -1 -14 6 5 8 1 10 -10 5 -12 -4 -15 -3 -10 5 8 14 6 15 -12 4z"/>
<path d="M460 866 c0 -2 7 -7 16 -10 8 -3 12 -2 9 4 -6 10 -25 14 -25 6z"/>
<path d="M644 849 c-10 -17 13 -36 27 -22 12 12 4 33 -11 33 -5 0 -12 -5 -16
-11z"/>
<path d="M844 826 c-4 -9 -4 -19 -2 -21 8 -8 125 -8 137 -1 17 11 3 25 -19 19
-11 -3 -20 0 -20 6 0 14 -33 14 -48 -1 -8 -8 -15 -8 -26 2 -13 10 -17 9 -22
-4z"/>
<path d="M1030 815 c0 -15 4 -24 10 -20 6 3 10 2 10 -4 0 -6 7 -8 16 -4 23 9
13 47 -13 51 -19 3 -23 -1 -23 -23z"/>
<path d="M1490 830 c0 -5 7 -10 15 -10 8 0 15 5 15 10 0 6 -7 10 -15 10 -8 0
-15 -4 -15 -10z"/>
<path d="M2056 823 c-6 -14 -5 -15 5 -6 7 7 10 15 7 18 -3 3 -9 -2 -12 -12z"/>
<path d="M783 814 c-39 -16 -42 -23 -10 -17 28 6 57 -38 39 -59 -5 -7 -12 -26
-14 -42 -2 -22 2 -30 19 -37 17 -6 21 -5 16 7 -5 13 7 18 35 15 8 -1 20 3 28
10 12 9 13 9 9 -2 -4 -11 4 -15 32 -16 53 -2 76 -8 81 -21 2 -7 13 -12 25 -12
35 0 55 -16 39 -32 -6 -6 -12 -27 -12 -46 0 -25 -5 -35 -20 -39 -11 -3 -20
-11 -20 -18 0 -7 -6 -18 -14 -24 -20 -17 -40 -74 -23 -68 6 2 11 11 9 21 -2 9
2 16 7 16 5 0 13 9 16 20 7 21 58 54 68 44 8 -9 47 6 47 17 0 7 -12 8 -30 4
-28 -6 -30 -5 -30 22 0 16 7 38 15 49 21 28 19 31 -30 43 -25 6 -46 16 -46 21
-1 6 -2 16 -3 23 -1 8 -24 12 -81 12 -86 0 -113 14 -102 56 3 12 0 19 -9 19
-17 0 -19 36 -1 43 6 3 8 5 2 5 -5 0 -25 -6 -42 -14z m47 -94 c0 -5 -5 -10
-11 -10 -5 0 -7 5 -4 10 3 6 8 10 11 10 2 0 4 -4 4 -10z m167 -42 c-3 -8 -6
-5 -6 6 -1 11 2 17 5 13 3 -3 4 -12 1 -19z"/>
<path d="M1358 803 c7 -3 16 -2 19 1 4 3 -2 6 -13 5 -11 0 -14 -3 -6 -6z"/>
<path d="M966 791 c-17 -7 -18 -8 -3 -14 9 -3 19 -2 22 3 8 13 25 13 25 0 0
-5 -11 -12 -24 -16 -40 -10 -39 -30 1 -26 24 3 33 8 29 18 -3 8 0 14 6 14 7 0
6 5 -2 15 -14 16 -25 18 -54 6z"/>
<path d="M2950 795 c0 -15 21 -35 37 -35 7 0 13 5 13 11 0 5 -5 7 -11 4 -6 -4
-17 1 -24 11 -8 11 -15 14 -15 9z"/>
<path d="M440 780 c0 -5 5 -10 11 -10 5 0 7 5 4 10 -3 6 -8 10 -11 10 -2 0 -4
-4 -4 -10z"/>
<path d="M570 771 c-8 -6 -27 -7 -43 -4 -19 4 -32 1 -38 -8 -13 -21 -10 -36 4
-18 8 11 26 15 58 14 33 -1 46 2 46 11 0 16 -6 17 -27 5z"/>
<path d="M610 770 c0 -12 17 -12 45 0 17 7 15 9 -12 9 -18 1 -33 -3 -33 -9z"/>
<path d="M857 773 c-4 -3 -7 -15 -7 -25 0 -19 34 -26 45 -8 3 6 1 10 -5 10 -7
0 -10 7 -6 15 5 15 -14 21 -27 8z"/>
<path d="M910 755 c0 -28 24 -34 34 -9 8 20 -1 34 -20 34 -8 0 -14 -10 -14
-25z"/>
<path d="M1270 770 c20 -13 33 -13 25 0 -3 6 -14 10 -23 10 -15 0 -15 -2 -2
-10z"/>
<path d="M1616 757 c3 -10 9 -15 12 -12 3 3 0 11 -7 18 -10 9 -11 8 -5 -6z"/>
<path d="M417 733 c-3 -5 8 -8 23 -8 15 0 26 3 23 8 -2 4 -13 7 -23 7 -10 0
-21 -3 -23 -7z"/>
<path d="M2050 728 c0 -11 12 -10 30 2 12 7 10 9 -8 7 -12 0 -22 -5 -22 -9z"/>
<path d="M2140 720 c0 -11 6 -20 13 -20 19 0 27 10 20 26 -8 21 -33 17 -33 -6z"/>
<path d="M1136 705 c4 -9 -3 -24 -16 -35 -17 -15 -19 -20 -8 -20 9 0 19 7 22
16 3 9 11 12 18 8 8 -5 9 -2 5 10 -4 10 -7 22 -7 27 0 5 -4 9 -10 9 -5 0 -7
-7 -4 -15z"/>
<path d="M1180 699 c0 -24 23 -21 28 4 2 10 -3 17 -12 17 -10 0 -16 -9 -16
-21z"/>
<path d="M2310 716 c0 -2 7 -7 16 -10 8 -3 12 -2 9 4 -6 10 -25 14 -25 6z"/>
<path d="M2213 671 l0 -34 19 23 c21 27 24 48 4 31 -11 -9 -15 -9 -18 1 -3 7
-5 -2 -5 -21z"/>
<path d="M2343 693 c-7 -2 -13 -12 -13 -21 -1 -15 -2 -15 -11 1 -14 23 -29 12
-28 -21 0 -15 3 -21 6 -14 2 6 20 12 39 12 26 0 34 4 34 18 0 15 -2 15 -11 2
-9 -12 -10 -11 -6 8 3 12 4 22 4 21 -1 0 -8 -3 -14 -6z"/>
<path d="M1240 681 c0 -5 5 -13 10 -16 6 -3 10 -2 10 4 0 5 -4 13 -10 16 -5 3
-10 2 -10 -4z"/>
<path d="M2420 673 c0 -10 -4 -14 -8 -8 -12 17 -32 16 -32 -2 0 -9 3 -13 6
-10 4 3 14 2 23 -3 22 -11 46 4 38 24 -8 21 -27 20 -27 -1z"/>
<path d="M2141 666 c-9 -11 -9 -16 0 -22 7 -4 9 -3 5 4 -3 6 2 15 11 21 10 6
13 11 7 11 -6 0 -17 -6 -23 -14z"/>
<path d="M2250 665 c0 -8 7 -15 15 -15 8 0 15 7 15 15 0 8 -7 15 -15 15 -8 0
-15 -7 -15 -15z"/>
<path d="M566 657 c3 -10 9 -15 12 -12 3 3 0 11 -7 18 -10 9 -11 8 -5 -6z"/>
<path d="M1155 640 c-8 -13 3 -30 20 -30 23 0 25 15 5 28 -12 7 -21 8 -25 2z"/>
<path d="M1705 640 c-8 -12 -8 -12 32 -14 19 -2 34 3 37 11 6 16 -59 19 -69 3z"/>
<path d="M763 624 c-3 -8 1 -22 9 -30 12 -12 17 -12 33 -1 23 17 14 47 -15 47
-11 0 -23 -7 -27 -16z"/>
<path d="M453 623 c-17 -2 -34 -12 -38 -21 -5 -14 -4 -15 6 -4 7 6 26 12 41
12 15 0 28 5 28 10 0 6 -1 9 -2 8 -2 0 -17 -3 -35 -5z"/>
<path d="M512 620 c3 -8 10 -15 16 -14 7 1 24 2 38 3 14 0 23 5 19 11 -3 6
-15 6 -29 0 -16 -6 -28 -5 -36 3 -10 9 -11 9 -8 -3z"/>
<path d="M2223 605 c2 -27 5 -30 32 -27 37 4 38 6 30 31 -8 27 -25 27 -32 1
-7 -27 -20 -25 -26 3 -4 15 -5 12 -4 -8z"/>
<path d="M2475 610 c10 -11 20 -18 23 -15 7 6 -18 35 -31 35 -5 0 -2 -9 8 -20z"/>
<path d="M1910 613 c0 -5 5 -15 10 -23 7 -12 12 -12 22 -2 10 10 10 15 -2 22
-18 12 -30 13 -30 3z"/>
<path d="M2676 611 c-3 -5 1 -11 9 -14 9 -4 12 -1 8 9 -6 16 -10 17 -17 5z"/>
<path d="M1112 590 c0 -14 2 -19 5 -12 2 6 2 18 0 25 -3 6 -5 1 -5 -13z"/>
<path d="M2301 588 c1 -17 2 -19 6 -5 2 9 9 17 14 17 6 0 7 -4 4 -10 -4 -6 11
-10 39 -10 24 0 51 -3 60 -6 12 -4 16 0 16 15 0 22 -24 29 -35 11 -3 -5 -12
-10 -18 -10 -7 0 -6 4 3 10 12 8 11 10 -7 10 -12 0 -24 -6 -26 -12 -4 -10 -6
-10 -6 0 -1 6 -12 12 -26 12 -20 0 -25 -5 -24 -22z"/>
<path d="M740 600 c-7 -32 -7 -40 2 -40 7 0 7 -4 0 -13 -7 -8 -8 -18 -1 -27 8
-13 13 -10 34 13 14 16 34 27 50 27 16 0 25 6 25 15 0 17 -16 20 -25 5 -10
-17 -63 -11 -74 8 -6 9 -11 15 -11 12z m40 -44 c0 -3 -4 -8 -10 -11 -5 -3 -10
-1 -10 4 0 6 5 11 10 11 6 0 10 -2 10 -4z"/>
<path d="M1150 580 c-14 -10 -22 -21 -19 -24 3 -3 16 5 29 19 28 30 24 32 -10
5z"/>
<path d="M488 569 c-10 -10 -15 -19 -10 -19 10 1 42 26 42 34 0 11 -15 5 -32
-15z"/>
<path d="M955 580 c-4 -6 -2 -17 4 -24 6 -7 7 -17 3 -21 -4 -5 -1 -5 6 -1 10
6 10 11 1 22 -8 10 -8 14 0 14 6 0 11 5 11 10 0 13 -17 13 -25 0z"/>
<path d="M2941 568 c-5 -14 -20 -28 -32 -31 -13 -4 -20 -9 -17 -13 13 -12 49
8 59 33 5 14 7 28 5 31 -3 3 -10 -6 -15 -20z"/>
<path d="M420 570 c0 -5 5 -10 11 -10 5 0 7 5 4 10 -3 6 -8 10 -11 10 -2 0 -4
-4 -4 -10z"/>
<path d="M1195 550 c-3 -5 -1 -10 4 -10 6 0 11 5 11 10 0 6 -2 10 -4 10 -3 0
-8 -4 -11 -10z"/>
<path d="M930 540 c0 -5 5 -10 11 -10 5 0 7 5 4 10 -3 6 -8 10 -11 10 -2 0 -4
-4 -4 -10z"/>
<path d="M2150 541 c0 -9 -8 -11 -25 -7 -17 4 -25 2 -25 -6 0 -9 -3 -8 -11 2
-8 12 -9 11 -7 -5 2 -11 10 -19 19 -17 29 4 54 -36 52 -86 -2 -63 11 -84 50
-80 25 2 33 -1 35 -16 3 -15 0 -18 -20 -13 -24 6 -26 2 -28 -57 -1 -14 -6 -17
-23 -12 -58 18 -97 18 -122 2 -52 -34 -185 -2 -170 41 2 6 -2 13 -8 16 -17 7
-16 -85 2 -106 11 -14 11 -18 -2 -23 -8 -3 -17 -15 -20 -26 -3 -11 -11 -18
-19 -16 -7 3 -23 -1 -37 -8 -19 -10 -26 -10 -37 1 -19 19 -17 32 6 45 11 6 20
16 20 22 0 6 -7 4 -18 -5 -16 -14 -19 -14 -42 3 l-25 20 35 1 c19 0 52 0 73
-1 28 -1 37 2 37 14 0 9 -4 16 -10 16 -5 0 -10 -4 -10 -8 0 -4 -9 -8 -19 -8
-11 0 -19 3 -18 6 3 9 -11 11 -38 6 -63 -14 -79 -22 -94 -47 -13 -22 -20 -25
-34 -17 -10 5 -22 20 -27 33 -5 12 -24 33 -42 45 l-33 23 33 -34 c33 -36 42
-56 20 -43 -8 4 -10 3 -5 -2 5 -5 12 -9 16 -9 8 0 27 -17 78 -68 24 -24 32
-39 30 -62 -2 -26 -7 -30 -35 -33 -18 -2 -40 2 -47 8 -20 16 -88 50 -92 46 -2
-2 21 -18 52 -35 41 -23 67 -31 93 -29 39 3 39 2 41 81 1 34 4 38 24 35 17 -2
23 -10 25 -38 1 -19 6 -42 9 -50 3 -8 5 -18 5 -22 -3 -12 52 -5 60 7 5 6 8 6
8 -2 0 -7 5 -13 11 -13 8 0 8 4 0 14 -10 12 -3 15 37 21 26 3 54 10 61 14 7 5
25 2 41 -5 30 -16 80 -5 80 17 0 7 2 10 5 7 3 -3 1 -17 -5 -32 -9 -24 -14 -27
-39 -21 -17 3 -32 2 -36 -4 -8 -13 54 -15 74 -2 7 5 14 24 16 42 3 33 4 34 41
32 22 -2 41 -8 43 -14 1 -5 13 -14 26 -19 34 -13 145 -23 145 -13 0 18 87 52
143 56 45 3 57 1 57 -11 0 -10 8 -13 24 -10 18 4 26 0 30 -15 3 -12 10 -18 20
-14 8 3 28 0 43 -8 17 -8 54 -12 98 -10 73 2 105 11 105 26 0 6 -9 5 -20 -1
-52 -28 -198 -12 -241 26 -8 8 -23 14 -32 14 -9 0 -17 4 -17 8 0 5 -26 9 -57
10 -47 1 -69 -4 -115 -28 -39 -20 -72 -30 -102 -30 -52 0 -96 17 -96 37 0 8
-8 13 -17 11 -10 -1 -23 1 -29 4 -13 9 -54 -1 -54 -13 0 -5 -7 -9 -16 -9 -10
0 -14 -6 -10 -15 8 -23 -46 -19 -91 6 -27 15 -33 17 -24 5 8 -9 9 -16 3 -16
-6 0 -17 -3 -26 -6 -12 -5 -16 0 -16 19 0 14 -6 30 -12 34 -17 11 -16 35 2 50
12 10 13 15 2 30 -20 29 -25 43 -18 51 4 3 10 1 14 -5 4 -6 36 -15 72 -21 58
-9 69 -7 102 11 35 21 38 21 87 5 55 -17 61 -16 61 18 0 14 8 25 20 29 12 4
24 22 31 45 7 21 26 52 43 68 l31 30 43 -24 c37 -20 40 -24 25 -33 -10 -6 -13
-11 -6 -11 6 0 18 7 27 15 8 8 19 15 25 15 6 0 11 4 11 9 0 5 14 4 30 -2 17
-6 30 -15 30 -18 0 -13 31 -39 40 -34 5 3 1 14 -10 25 -27 27 -79 52 -92 44
-18 -11 -65 -12 -79 -2 -11 7 -11 11 -1 15 13 5 7 23 -9 23 -6 0 -7 -6 -3 -12
6 -10 4 -10 -7 0 -18 17 -25 15 -49 -10 l-20 -22 -12 32 c-7 18 -16 32 -20 32
-4 0 -8 12 -8 28 0 21 2 24 10 12 7 -11 12 -12 20 -4 16 16 2 23 -56 25 -27 1
-52 7 -56 13 -5 7 -8 6 -8 -3z m23 -33 c-7 -13 12 -9 26 5 11 10 13 10 7 0 -4
-7 -3 -13 3 -13 5 0 11 3 14 8 2 4 3 2 1 -5 -1 -6 4 -19 11 -30 20 -26 18 -33
-10 -33 -18 0 -25 -5 -25 -18 0 -11 -10 -27 -21 -38 l-21 -19 7 42 c5 34 3 50
-13 75 l-21 33 24 0 c13 0 21 -3 18 -7z m102 -99 c6 -6 1 -15 -12 -24 -15 -10
-20 -21 -16 -33 6 -14 4 -15 -8 -5 -8 7 -25 10 -37 6 -16 -4 -22 -1 -22 11 0
9 7 19 15 22 8 4 15 15 15 25 0 16 5 18 28 13 15 -4 31 -11 37 -15z m-556
-229 c17 0 13 -11 -15 -36 -15 -14 -22 -29 -18 -37 4 -6 -2 -3 -14 7 -27 23
-28 45 -4 74 15 19 19 20 28 7 6 -8 16 -15 23 -15z m149 -72 c18 -18 15 -48
-5 -54 -10 -3 -26 -10 -35 -15 -32 -17 -57 -10 -64 15 -7 30 1 44 30 56 31 13
60 12 74 -2z"/>
<path d="M444 528 c-4 -7 -3 -8 4 -4 18 11 71 -22 93 -57 19 -31 22 -15 5 25
-4 9 -4 23 0 30 6 11 5 11 -8 0 -12 -10 -21 -9 -44 3 -35 18 -41 18 -50 3z"/>
<path d="M700 519 c0 -5 -5 -7 -11 -3 -7 4 -9 -2 -7 -16 4 -27 32 -35 49 -14
9 11 8 14 -7 15 -11 0 -14 3 -6 6 6 2 10 9 6 14 -7 12 -24 11 -24 -2z"/>
<path d="M898 523 c6 -2 10 -8 7 -13 -3 -4 2 -10 10 -14 9 -3 15 0 15 8 0 13
-22 27 -38 25 -4 0 -1 -3 6 -6z"/>
<path d="M2479 522 c-8 -1 -20 -16 -26 -33 -10 -26 -10 -29 3 -19 8 7 14 19
14 26 0 9 12 14 35 14 19 0 35 4 35 9 0 8 -27 10 -61 3z"/>
<path d="M2023 496 c0 -18 5 -24 17 -23 14 1 16 5 9 19 -15 28 -26 29 -26 4z"/>
<path d="M775 500 c-3 -5 -1 -10 4 -10 6 0 11 5 11 10 0 6 -2 10 -4 10 -3 0
-8 -4 -11 -10z"/>
<path d="M1682 488 c2 -6 15 -12 28 -13 21 -2 22 -1 5 12 -23 16 -38 17 -33 1z"/>
<path d="M1079 473 c-13 -17 -13 -17 6 -3 11 8 22 16 24 17 2 2 0 3 -6 3 -6 0
-17 -8 -24 -17z"/>
<path d="M1982 478 c6 -18 28 -21 28 -4 0 9 -7 16 -16 16 -9 0 -14 -5 -12 -12z"/>
<path d="M1600 465 c-17 -10 -20 -14 -9 -15 9 0 22 7 29 15 15 18 12 18 -20 0z"/>
<path d="M705 449 c-10 -15 3 -25 16 -12 7 7 7 13 1 17 -6 3 -14 1 -17 -5z"/>
<path d="M741 437 c1 -17 2 -18 6 -4 5 19 24 24 21 5 -3 -15 34 -11 43 4 4 6
8 6 11 -2 2 -7 20 -14 39 -15 28 -2 35 1 36 16 2 21 -17 25 -35 7 -8 -8 -15
-8 -24 -1 -7 6 -32 11 -55 12 -39 1 -43 -1 -42 -22z"/>
<path d="M1050 439 c0 -11 27 -12 34 -1 2 4 -4 9 -15 9 -10 1 -19 -2 -19 -8z"/>
<path d="M1720 440 c-13 -8 -12 -10 3 -10 9 0 17 5 17 10 0 12 -1 12 -20 0z"/>
<path d="M1867 443 c-4 -3 -7 -15 -7 -25 0 -16 11 -18 48 -9 1 1 -2 10 -8 21
-11 21 -22 25 -33 13z"/>
<path d="M2004 442 c2 -4 1 -14 -5 -22 -6 -10 -9 -11 -9 -2 0 8 -15 12 -42 12
-28 0 -38 -3 -29 -9 11 -7 11 -9 0 -13 -9 -3 -10 -6 -2 -11 6 -4 19 0 27 9 12
11 16 12 16 2 0 -10 3 -9 10 2 6 10 10 11 10 3 0 -8 13 -13 29 -13 16 0 32 6
34 13 4 10 6 10 6 0 1 -19 71 -17 71 2 0 18 -26 20 -33 3 -4 -10 -6 -10 -6 0
-1 7 -14 12 -31 12 -16 0 -30 5 -30 10 0 6 -5 10 -11 10 -5 0 -8 -4 -5 -8z"/>
<path d="M1279 420 c-31 -49 -31 -60 -1 -59 17 1 20 3 10 6 -19 5 -23 15 -11
26 3 4 12 2 20 -5 11 -8 17 -8 26 2 10 10 9 12 -5 7 -13 -4 -18 1 -20 21 l-3
26 -16 -24z"/>
<path d="M1600 424 c0 -8 5 -12 10 -9 6 4 8 11 5 16 -9 14 -15 11 -15 -7z"/>
<path d="M1820 430 c0 -5 5 -10 11 -10 5 0 7 5 4 10 -3 6 -8 10 -11 10 -2 0
-4 -4 -4 -10z"/>
<path d="M2390 430 c0 -5 5 -10 10 -10 6 0 10 5 10 10 0 6 -4 10 -10 10 -5 0
-10 -4 -10 -10z"/>
<path d="M2420 429 c0 -5 5 -7 10 -4 6 3 10 8 10 11 0 2 -4 4 -10 4 -5 0 -10
-5 -10 -11z"/>
<path d="M2929 420 c13 -11 28 -20 33 -20 6 0 -1 9 -15 20 -33 26 -49 26 -18
0z"/>
<path d="M1338 413 c7 -3 16 -2 19 1 4 3 -2 6 -13 5 -11 0 -14 -3 -6 -6z"/>
<path d="M1220 395 c-14 -16 -10 -18 14 -9 9 3 16 10 16 15 0 14 -16 11 -30
-6z"/>
<path d="M1820 379 c0 -5 5 -7 10 -4 6 3 10 8 10 11 0 2 -4 4 -10 4 -5 0 -10
-5 -10 -11z"/>
<path d="M1220 359 c0 -5 5 -7 10 -4 6 3 10 8 10 11 0 2 -4 4 -10 4 -5 0 -10
-5 -10 -11z"/>
<path d="M1860 344 c0 -22 2 -25 15 -14 9 7 15 8 15 2 0 -14 50 -7 60 8 6 10
9 8 13 -6 4 -18 5 -18 6 -1 1 17 2 17 17 3 19 -20 29 -20 47 -1 9 8 17 11 19
6 2 -5 18 -12 36 -16 28 -6 32 -4 32 14 0 12 -6 21 -16 21 -8 0 -12 -4 -9 -10
3 -5 1 -10 -4 -10 -6 0 -11 4 -11 8 0 5 -18 9 -40 9 -22 0 -37 -3 -34 -8 3 -5
0 -9 -5 -9 -6 0 -11 5 -11 10 0 14 -44 12 -59 -2 -10 -11 -15 -10 -25 5 -20
27 -46 22 -46 -9z"/>
<path d="M962 340 c-12 -19 -11 -20 8 -8 20 13 27 28 12 28 -4 0 -13 -9 -20
-20z"/>
<path d="M1166 351 c-3 -5 6 -8 19 -8 14 0 25 3 25 8 0 5 -9 9 -19 9 -11 0
-22 -4 -25 -9z"/>
<path d="M1324 310 c1 -22 8 -46 16 -53 10 -10 11 -9 5 2 -5 8 -7 31 -7 53 1
21 -2 38 -7 38 -5 0 -8 -18 -7 -40z"/>
<path d="M2408 334 c12 -8 22 -23 22 -33 0 -10 7 -24 15 -31 12 -10 22 -8 51
11 20 12 56 26 80 30 39 7 47 6 71 -17 14 -13 37 -27 50 -30 13 -4 23 -10 23
-14 0 -4 12 -16 27 -25 l27 -18 -24 31 c-14 17 -32 31 -41 31 -9 1 -20 8 -23
17 -3 8 -10 13 -16 9 -5 -3 -15 3 -22 15 -7 11 -18 20 -25 20 -7 0 -13 6 -13
13 0 6 -5 4 -11 -6 -7 -11 -17 -16 -29 -12 -20 6 -50 -7 -87 -39 -26 -22 -47
-12 -39 20 5 17 1 26 -13 34 -30 16 -48 12 -23 -6z"/>
<path d="M1230 325 c0 -8 7 -15 16 -15 14 0 14 3 4 15 -7 8 -14 15 -16 15 -2
0 -4 -7 -4 -15z"/>
<path d="M1080 320 c0 -5 4 -10 9 -10 6 0 13 5 16 10 3 6 -1 10 -9 10 -9 0
-16 -4 -16 -10z"/>
<path d="M2740 319 c0 -5 5 -7 10 -4 6 3 10 8 10 11 0 2 -4 4 -10 4 -5 0 -10
-5 -10 -11z"/>
<path d="M1370 305 c0 -21 30 -32 41 -14 5 8 9 9 9 3 0 -6 22 -11 55 -11 39 0
55 4 55 14 0 12 -28 19 -55 13 -22 -4 -41 -3 -72 4 -27 6 -33 5 -33 -9z m30
-5 c0 -5 -4 -10 -10 -10 -5 0 -10 5 -10 10 0 6 5 10 10 10 6 0 10 -4 10 -10z"/>
<path d="M921 301 c-8 -6 -9 -11 -3 -15 6 -3 14 -1 17 5 9 14 2 20 -14 10z"/>
<path d="M1150 306 c0 -7 40 -14 44 -7 3 4 -6 8 -20 9 -13 1 -24 0 -24 -2z"/>
<path d="M1690 295 c-20 -24 -4 -31 75 -28 83 2 96 6 77 25 -7 7 -12 8 -12 3
0 -6 -15 -10 -34 -10 -26 0 -32 3 -24 13 7 8 7 12 0 12 -6 0 -14 -5 -17 -10
-4 -7 -12 -7 -25 0 -24 13 -25 13 -40 -5z"/>
<path d="M858 254 l-15 -32 30 9 c35 10 47 19 24 19 -8 0 -17 8 -19 18 -3 13
-7 10 -20 -14z"/>
<path d="M1109 254 c-12 -13 -19 -24 -14 -24 4 0 13 8 20 17 11 14 18 16 41 8
25 -9 66 -62 58 -76 -2 -4 6 -15 19 -25 l22 -19 -20 24 -20 24 23 -5 c12 -4
20 -2 16 3 -3 5 -12 9 -20 9 -8 0 -17 13 -20 29 -4 16 -14 32 -23 35 -9 3 -26
10 -37 15 -18 8 -26 5 -45 -15z"/>
<path d="M2963 273 c-7 -2 -13 -9 -13 -15 0 -7 5 -7 13 1 8 6 18 7 22 3 5 -4
5 -1 1 6 -4 6 -8 12 -9 11 -1 0 -8 -3 -14 -6z"/>
<path d="M660 256 c0 -8 4 -17 8 -20 4 -2 8 4 8 15 0 10 -4 19 -8 19 -4 0 -8
-6 -8 -14z"/>
<path d="M963 263 c-7 -2 -13 -9 -13 -14 0 -6 7 -6 19 0 10 6 22 7 26 3 5 -4
5 -1 1 6 -8 13 -13 14 -33 5z"/>
<path d="M1460 261 c0 -4 11 -18 25 -31 14 -13 25 -21 25 -17 0 3 -11 17 -25
31 -14 14 -25 22 -25 17z"/>
<path d="M2750 261 c0 -5 7 -11 14 -14 10 -4 13 -1 9 9 -6 15 -23 19 -23 5z"/>
<path d="M2855 250 c-3 -5 -1 -10 4 -10 6 0 11 5 11 10 0 6 -2 10 -4 10 -3 0
-8 -4 -11 -10z"/>
<path d="M2900 256 c0 -2 9 -6 20 -9 11 -3 18 -1 14 4 -5 9 -34 13 -34 5z"/>
<path d="M1328 238 c7 -7 12 -19 12 -27 -1 -13 -3 -12 -11 2 -10 18 -11 18
-25 0 -12 -16 -13 -16 -14 -2 0 9 -7 19 -15 23 -11 4 -15 -2 -14 -22 0 -24 1
-25 9 -7 7 17 9 17 9 3 1 -15 11 -18 61 -18 46 0 60 3 60 14 0 20 -17 29 -23
14 -3 -9 -11 -6 -26 10 -12 12 -25 22 -28 22 -4 0 -2 -5 5 -12z"/>
<path d="M1688 238 c9 -9 15 -9 24 0 9 9 7 12 -12 12 -19 0 -21 -3 -12 -12z"/>
<path d="M208 215 c-36 -24 -48 -48 -30 -59 5 -3 8 5 8 17 -1 14 6 23 19 25
11 3 24 10 30 18 8 11 27 12 97 4 49 -5 91 -11 96 -14 4 -2 23 -1 42 3 28 6
15 9 -65 15 -55 4 -113 9 -130 11 -21 3 -42 -3 -67 -20z"/>
<path d="M1000 225 c0 -16 16 -20 24 -6 3 5 -1 11 -9 15 -9 3 -15 0 -15 -9z"/>
<path d="M2985 230 c-3 -5 -1 -10 4 -10 6 0 11 5 11 10 0 6 -2 10 -4 10 -3 0
-8 -4 -11 -10z"/>
<path d="M2056 217 c-11 -8 -15 -17 -10 -20 14 -8 37 8 33 22 -3 8 -10 8 -23
-2z"/>
<path d="M2377 223 c-18 -17 -3 -29 39 -32 30 -1 44 2 39 8 -3 6 -2 11 4 11 5
0 11 -6 14 -12 2 -7 7 -10 11 -7 3 3 4 13 0 22 -4 12 -11 14 -24 7 -9 -5 -20
-6 -24 -3 -3 3 -6 1 -6 -5 0 -7 -7 -12 -15 -12 -8 0 -15 7 -15 15 0 16 -12 20
-23 8z"/>
<path d="M2519 228 c-9 -30 -4 -34 32 -35 39 -1 58 10 39 22 -5 3 -10 1 -10
-6 0 -10 -3 -10 -11 -2 -6 6 -18 9 -27 6 -10 -4 -13 -2 -8 5 4 7 2 12 -3 12
-6 0 -11 -1 -12 -2z"/>
<path d="M2890 223 c0 -5 14 -8 30 -9 17 -1 30 3 30 7 0 5 -13 9 -30 9 -16 0
-30 -3 -30 -7z"/>
<path d="M795 210 c-19 -8 -19 -9 2 -9 12 -1 25 4 28 9 7 12 -2 12 -30 0z"/>
<path d="M2785 211 c-10 -17 14 -41 39 -40 19 1 19 2 -3 8 -14 4 -26 12 -29
19 -4 14 22 16 47 3 10 -6 31 -12 47 -15 16 -2 30 -5 32 -6 3 -3 19 -7 33 -9
5 0 8 -4 6 -8 -2 -5 4 -16 14 -25 13 -13 19 -13 22 -4 8 20 -51 59 -103 68
-25 5 -57 11 -71 14 -15 4 -30 1 -34 -5z"/>
<path d="M1520 199 c0 -5 5 -7 10 -4 6 3 10 8 10 11 0 2 -4 4 -10 4 -5 0 -10
-5 -10 -11z"/>
<path d="M2168 203 c-10 -2 -18 -14 -18 -25 0 -11 -7 -26 -16 -33 -15 -11 -15
-12 -1 -18 11 -4 17 2 22 24 4 16 10 29 15 29 4 0 10 7 14 15 3 8 4 14 3 14
-1 -1 -10 -3 -19 -6z"/>
<path d="M307 189 c7 -7 15 -10 18 -7 3 3 -2 9 -12 12 -14 6 -15 5 -6 -5z"/>
<path d="M350 189 c0 -12 26 -18 41 -8 15 9 15 9 -18 13 -13 2 -23 -1 -23 -5z"/>
<path d="M1905 190 c-3 -5 -1 -10 4 -10 6 0 11 5 11 10 0 6 -2 10 -4 10 -3 0
-8 -4 -11 -10z"/>
<path d="M1975 190 c-3 -5 -1 -10 4 -10 6 0 11 5 11 10 0 6 -2 10 -4 10 -3 0
-8 -4 -11 -10z"/>
<path d="M421 176 c-10 -12 -8 -13 8 -9 12 3 21 9 21 14 0 14 -16 11 -29 -5z"/>
<path d="M782 181 c-10 -6 -9 -11 4 -22 12 -9 15 -10 10 -1 -4 7 -1 12 8 12 9
0 16 5 16 10 0 12 -20 13 -38 1z"/>
<path d="M1937 176 c-10 -8 -14 -16 -10 -19 5 -3 14 3 21 14 14 22 13 23 -11
5z"/>
<path d="M1410 168 c0 -23 53 -65 88 -70 43 -6 41 8 -2 16 -21 4 -45 19 -60
37 -14 17 -26 24 -26 17z"/>
<path d="M1790 171 c0 -10 19 -25 25 -20 1 2 -3 10 -11 17 -8 7 -14 8 -14 3z"/>
<path d="M2772 160 c2 -19 10 -25 31 -27 20 -1 27 3 26 15 0 12 -2 13 -6 4 -4
-10 -12 -7 -30 10 l-25 23 4 -25z m23 -10 c3 -5 1 -10 -4 -10 -6 0 -11 5 -11
10 0 6 2 10 4 10 3 0 8 -4 11 -10z"/>
<path d="M2850 170 c0 -5 5 -10 10 -10 6 0 10 5 10 10 0 6 -4 10 -10 10 -5 0
-10 -4 -10 -10z"/>
<path d="M1267 144 c-5 -27 9 -33 16 -6 4 16 5 16 6 0 1 -14 10 -18 37 -18 19
0 33 4 30 9 -4 5 -2 11 4 13 6 2 6 8 0 18 -9 13 -11 13 -20 0 -5 -8 -10 -10
-10 -5 0 6 -7 1 -15 -9 -12 -16 -15 -17 -15 -4 0 27 -27 29 -33 2z"/>
<path d="M2070 159 c0 -5 5 -7 10 -4 6 3 10 8 10 11 0 2 -4 4 -10 4 -5 0 -10
-5 -10 -11z"/>
<path d="M2900 159 c0 -5 -5 -7 -12 -3 -7 5 -8 3 -3 -6 5 -9 2 -10 -14 -5 -17
5 -20 3 -14 -11 4 -12 3 -15 -5 -10 -7 4 -12 2 -12 -3 0 -15 6 -14 35 5 14 9
25 13 25 9 0 -4 7 -2 15 5 10 9 15 9 15 1 0 -6 10 -11 23 -11 20 0 20 2 -8 20
-34 22 -45 25 -45 9z"/>
<path d="M1120 150 c-8 -5 -12 -12 -9 -15 4 -3 12 1 19 10 14 17 11 19 -10 5z"/>
<path d="M1174 146 c10 -29 -4 -86 -21 -86 -13 0 -13 2 -2 17 12 14 12 16 -1
11 -8 -2 -15 -12 -15 -22 0 -9 -7 -21 -15 -26 -8 -5 -11 -12 -7 -16 4 -4 16 1
27 11 14 13 23 15 32 7 11 -8 13 2 13 48 0 32 -4 62 -9 67 -5 5 -6 0 -2 -11z"/>
<path d="M1976 145 c25 -19 35 -19 28 0 -4 8 -16 15 -27 15 -20 0 -20 0 -1
-15z"/>
<path d="M2025 150 c4 -6 11 -8 16 -5 14 9 11 15 -7 15 -8 0 -12 -5 -9 -10z"/>
<path d="M197 143 c-9 -15 -4 -123 5 -123 5 0 8 16 6 37 l-3 36 53 1 c63 1 84
-14 58 -42 -18 -21 -21 -42 -5 -42 5 0 7 5 4 10 -4 6 3 19 16 29 21 17 21 18
3 39 -15 18 -25 20 -56 16 -26 -5 -38 -3 -38 5 0 8 -8 10 -20 6 -15 -5 -18 -2
-15 14 4 21 0 27 -8 14z"/>
<path d="M290 139 c0 -5 5 -7 10 -4 6 3 10 8 10 11 0 2 -4 4 -10 4 -5 0 -10
-5 -10 -11z"/>
<path d="M1373 133 c-3 -10 -8 -21 -9 -24 -2 -4 2 -9 9 -12 7 -3 13 6 14 24 2
32 -4 38 -14 12z"/>
<path d="M350 110 c1 -21 2 -23 11 -8 5 10 17 22 27 27 14 9 12 10 -10 9 -23
-2 -28 -7 -28 -28z"/>
<path d="M615 130 c3 -5 8 -10 11 -10 2 0 4 5 4 10 0 6 -5 10 -11 10 -5 0 -7
-4 -4 -10z"/>
<path d="M705 130 c4 -6 11 -8 16 -5 14 9 11 15 -7 15 -8 0 -12 -5 -9 -10z"/>
<path d="M1140 130 c0 -5 5 -10 11 -10 5 0 7 5 4 10 -3 6 -8 10 -11 10 -2 0
-4 -4 -4 -10z"/>
<path d="M556 116 c3 -8 12 -17 20 -20 11 -4 12 -2 1 14 -14 23 -29 27 -21 6z"/>
<path d="M600 110 c0 -6 7 -10 15 -10 8 0 15 2 15 4 0 2 -7 6 -15 10 -8 3 -15
1 -15 -4z"/>
<path d="M760 110 c0 -5 5 -10 11 -10 5 0 7 5 4 10 -3 6 -8 10 -11 10 -2 0 -4
-4 -4 -10z"/>
<path d="M837 100 c-6 -24 -27 -27 -27 -3 0 18 -10 12 -14 -9 -3 -25 -16 -36
-47 -43 -17 -4 -33 -13 -36 -21 -4 -10 -29 -14 -102 -16 -56 -1 -73 -3 -41 -5
30 -2 120 1 200 5 128 8 134 9 56 11 l-88 1 52 28 c30 15 56 37 61 50 5 12 5
22 0 22 -5 0 -11 -9 -14 -20z"/>
<path d="M1918 113 c7 -3 16 -2 19 1 4 3 -2 6 -13 5 -11 0 -14 -3 -6 -6z"/>
<path d="M1415 97 c-5 -7 -10 -19 -10 -27 0 -25 -40 -23 -73 4 -37 32 -47 33
-27 3 16 -24 88 -54 93 -38 4 11 42 2 42 -10 0 -5 4 -9 9 -9 5 0 4 11 -2 25
-7 14 -15 25 -19 25 -3 0 -4 9 -1 20 6 23 3 25 -12 7z"/>
<path d="M2867 103 c-4 -3 -7 -14 -7 -24 0 -19 26 -33 36 -18 4 6 11 6 20 -2
11 -9 14 -8 14 2 0 8 14 -2 31 -21 17 -19 28 -29 24 -21 -4 7 -2 17 6 22 10 6
8 9 -9 9 -13 0 -20 4 -17 10 4 6 10 8 15 5 4 -3 10 2 14 10 3 8 1 17 -4 20 -6
4 -10 1 -10 -6 0 -10 -3 -10 -12 -1 -8 8 -15 9 -25 1 -9 -9 -13 -8 -13 0 0 8
-7 7 -22 -3 -26 -18 -38 -20 -38 -6 0 6 7 10 16 10 8 0 12 5 9 10 -7 12 -19
13 -28 3z"/>
<path d="M660 80 c0 -5 5 -10 10 -10 6 0 10 5 10 10 0 6 -4 10 -10 10 -5 0
-10 -4 -10 -10z"/>
<path d="M2491 74 c0 -11 3 -14 6 -6 3 7 2 16 -1 19 -3 4 -6 -2 -5 -13z"/>
<path d="M556 63 c8 -8 11 -20 8 -26 -4 -7 3 -2 15 10 27 28 27 30 -8 30 -25
0 -27 -2 -15 -14z"/>
<path d="M388 63 c7 -3 16 -2 19 1 4 3 -2 6 -13 5 -11 0 -14 -3 -6 -6z"/>
<path d="M672 53 c-19 -13 -28 -14 -43 -5 -15 9 -17 9 -13 -2 12 -31 55 -26
92 11 20 19 -6 17 -36 -4z"/>
<path d="M2455 49 c-10 -14 -1 -21 19 -13 9 3 13 10 10 15 -7 12 -21 11 -29
-2z"/>
<path d="M1498 43 c7 -3 16 -2 19 1 4 3 -2 6 -13 5 -11 0 -14 -3 -6 -6z"/>
<path d="M2385 39 c-11 -17 1 -21 15 -4 8 9 8 15 2 15 -6 0 -14 -5 -17 -11z"/>
<path d="M2149 32 c-8 -2 -23 -7 -34 -12 -11 -5 -29 -11 -40 -14 -11 -3 -2 -3
20 -1 22 3 59 5 83 5 23 0 42 4 42 9 0 10 -49 19 -71 13z"/>
<path d="M2340 28 c0 -4 4 -8 9 -8 6 0 12 4 15 8 3 5 -1 9 -9 9 -8 0 -15 -4
-15 -9z"/>
<path d="M2860 29 c0 -5 5 -7 10 -4 6 3 10 8 10 11 0 2 -4 4 -10 4 -5 0 -10
-5 -10 -11z"/>
<path d="M1385 19 c-16 -6 -14 -8 13 -8 33 -1 41 4 20 12 -7 2 -22 1 -33 -4z"/>
<path d="M1877 23 c-4 -3 -7 -11 -7 -17 0 -6 5 -5 12 2 6 6 9 14 7 17 -3 3 -9
2 -12 -2z"/>
<path d="M1905 20 c-3 -5 1 -10 9 -10 9 0 16 5 16 10 0 6 -4 10 -9 10 -6 0
-13 -4 -16 -10z"/>
<path d="M1955 20 c-3 -5 -1 -10 4 -10 6 0 11 5 11 10 0 6 -2 10 -4 10 -3 0
-8 -4 -11 -10z"/>
<path d="M118 13 c12 -2 32 -2 45 0 12 2 2 4 -23 4 -25 0 -35 -2 -22 -4z"/>
<path d="M1018 13 c18 -2 45 -2 60 0 15 2 0 4 -33 4 -33 0 -45 -2 -27 -4z"/>
<path d="M1203 13 c9 -2 23 -2 30 0 6 3 -1 5 -18 5 -16 0 -22 -2 -12 -5z"/>
<path d="M1263 13 c9 -2 25 -2 35 0 9 3 1 5 -18 5 -19 0 -27 -2 -17 -5z"/>
<path d="M1458 9 c-13 -4 15 -7 62 -7 87 0 91 5 8 10 -26 2 -57 0 -70 -3z"/>
<path d="M2630 9 c0 -3 71 -7 157 -8 87 -1 155 0 152 3 -7 8 -309 13 -309 5z"/>
<path d="M238 3 c12 -2 30 -2 40 0 9 3 -1 5 -23 4 -22 0 -30 -2 -17 -4z"/>
<path d="M338 3 c7 -3 16 -2 19 1 4 3 -2 6 -13 5 -11 0 -14 -3 -6 -6z"/>
<path d="M418 3 c6 -2 18 -2 25 0 6 3 1 5 -13 5 -14 0 -19 -2 -12 -5z"/>
<path d="M1128 3 c12 -2 30 -2 40 0 9 3 -1 5 -23 4 -22 0 -30 -2 -17 -4z"/>
<path d="M1708 3 c7 -3 16 -2 19 1 4 3 -2 6 -13 5 -11 0 -14 -3 -6 -6z"/>
<path d="M2333 3 c53 -2 141 -2 195 0 53 1 9 3 -98 3 -107 0 -151 -2 -97 -3z"/>
</g>
</svg>
